<?xml version="1.0" standalone="yes"?>
<svg xmlns="http://www.w3.org/2000/svg" width="420" height="222">
<path style="fill:#fffcfc; stroke:none;" d="M0 0L0 222L420 222L420 0L0 0z"/>
<path style="fill:#c65f66; stroke:none;" d="M187 10L187 11L200 11L187 10z"/>
<path style="fill:#db0d1b; stroke:none;" d="M200 10.4244C147.718 17.2891 94.9999 19.0086 50 51.0918C30.3316 65.1147 11.8629 84.3503 11.0432 110C10.0146 142.188 39.4535 166.261 65 180.08C124.202 212.106 197.505 216.074 263 207.715C285.471 204.846 307.825 198.584 329 190.681C373.305 174.143 429.368 129.218 395.11 78C389.486 69.5905 381.887 62.5384 374 56.2855C336.771 26.7693 285.444 15.1657 239 11.9105C226.32 11.0218 212.672 8.76056 200 10.4244z"/>
<path style="fill:#c65f66; stroke:none;" d="M216 10L216 11L229 11L216 10z"/>
<path style="fill:#f9ef14; stroke:none;" d="M174 11L175 12L174 11z"/>
<path style="fill:#c65f66; stroke:none;" d="M175 11L175 12L181 12L175 11M235 11L235 12L243 12L235 11M165 12L165 13L170 13L165 12M247 12L247 13L251 13L247 12M156 13L156 14L160 14L156 13M257 13L257 14L261 14L257 13z"/>
<path style="fill:#f9ef14; stroke:none;" d="M149 14L150 15L149 14z"/>
<path style="fill:#c65f66; stroke:none;" d="M150 14L150 15L153 15L150 14M264 14L264 15L268 15L264 14M144 15L144 16L147 16L144 15M270 15L270 16L273 16L270 15M138 16L138 17L142 17L138 16M275 16L275 17L278 17L275 16M133.667 17.3333L134.333 17.6667L133.667 17.3333M281 17L281 18L284 18L281 17M129.667 18.3333L130.333 18.6667L129.667 18.3333M286.667 18.3333L287.333 18.6667L286.667 18.3333M124 19L124 20L127 20L124 19M290.667 19.3333L291.333 19.6667L290.667 19.3333M120 20L120 21L123 21L120 20M294 20L294 21L297 21L294 20M116 21L116 22L119 22L116 21M298 21L298 22L301 22L298 21M113.667 22.3333L114.333 22.6667L113.667 22.3333M302.667 22.3333L303.333 22.6667L302.667 22.3333z"/>
<path style="fill:#f9ef14; stroke:none;" d="M109 23L110 24L109 23z"/>
<path style="fill:#c65f66; stroke:none;" d="M110.667 23.3333L111.333 23.6667L110.667 23.3333M305.667 23.3333L306.333 23.6667L305.667 23.3333M106.667 24.3333L107.333 24.6667L106.667 24.3333M309.667 24.3333L310.333 24.6667L309.667 24.3333M103.667 25.3333L104.333 25.6667L103.667 25.3333M312.667 25.3333L313.333 25.6667L312.667 25.3333M100.667 26.3333L101.333 26.6667L100.667 26.3333M315.667 26.3333L316.333 26.6667L315.667 26.3333M97.6667 27.3333L98.3333 27.6667L97.6667 27.3333M317 27L317 28L320 28L317 27M94 28L95 29L94 28M321.667 28.3333L322.333 28.6667L321.667 28.3333M91.6667 29.3333L92.3333 29.6667L91.6667 29.3333M324.667 29.3333L325.333 29.6667L324.667 29.3333M89.6667 30.3333L90.3333 30.6667L89.6667 30.3333M326.667 30.3333L327.333 30.6667L326.667 30.3333M86.6667 31.3333L87.3333 31.6667L86.6667 31.3333M328.667 31.3333L329.333 31.6667L328.667 31.3333M84 32L85 33L84 32M332 32L333 33L332 32M82 33L83 34L82 33M333.667 33.3333L334.333 33.6667L333.667 33.3333M79.6667 34.3333L80.3333 34.6667L79.6667 34.3333M336 34L337 35L336 34M77.6667 35.3333L78.3333 35.6667L77.6667 35.3333M338.667 35.3333L339.333 35.6667L338.667 35.3333M75 36L76 37L75 36M341 36L342 37L341 36z"/>
<path style="fill:#f9ef14; stroke:none;" d="M72 37L73 38L72 37z"/>
<path style="fill:#c65f66; stroke:none;" d="M73 37L74 38L73 37M343 37L344 38L343 37M71.6667 38.3333L72.3333 38.6667L71.6667 38.3333M345 38L346 39L345 38M69 39L70 40L69 39M347 39L348 40L347 39M67 40L68 41L67 40M349 40L350 41L349 40M65 41L66 42L65 41M351 41L352 42L351 41M63.6667 42.3333L64.3333 42.6667L63.6667 42.3333M352.667 42.3333L353.333 42.6667L352.667 42.3333M61 43L62 44L61 43M354.667 43.3333L355.333 43.6667L354.667 43.3333M59.6667 44.3333L60.3333 44.6667L59.6667 44.3333M356 44L357 45L356 44M58 45L59 46L58 45M358 45L359 46L358 45M56 46L57 47L56 46M360 46L361 47L360 46M54 47L55 48L54 47M361 47L362 48L361 47M53 48L54 49L53 48z"/>
<path style="fill:#2b0e03; stroke:none;" d="M81 55C71.959 47.3889 58.6684 47.4254 55.5293 61C50.6313 82.1809 55 109.239 55 131C55 139.792 52.916 151.814 56.6528 159.996C62.4799 172.756 71.1407 164.437 80 164.946C86.6777 165.33 90.1617 171.41 97.9853 169.606C113.718 165.979 108 134.76 108 123L109 123C113.443 135.209 121.59 158.361 132.093 166.351C140.391 172.663 144.883 166.606 153 165.543C157.553 164.947 162.023 169.179 167 168.775C179.551 167.758 181.746 151.832 184 142C189.654 145.731 193.778 145.169 199 141C201.716 154.16 213.801 183.499 230 163L231 163C239.245 175.832 279.188 176.445 289 165L290 165C300.759 176.062 330.978 173.812 345 170.468C349.448 169.406 353.487 166.538 356.12 162.816C361.482 155.233 360 144.766 360 136L360 80C360 71.3673 360.886 62.0508 354.66 55.1049C347.167 46.746 334.131 48 324 48C312.087 48 297.476 45.7707 289 56L288 56C278.822 43.2854 236.599 42.6146 228.367 57.0008C224.553 63.6663 226 72.6046 226 80C226 96.3328 224.222 113.826 226 130C221.413 124.795 220.102 115.64 218.371 109C215.221 96.9167 211.279 85.0113 207.86 73C205.999 66.4633 204.655 58.4204 199.521 53.5332C191.673 46.0624 180.716 51.1813 176.955 60C172.037 71.5342 169.933 84.9244 166.576 97C163.034 109.74 157.929 122.936 156 136L155 136C154.752 116.069 156.048 95.7324 154.17 76C153.537 69.3497 155.88 62.2896 153.03 56.0039C148.569 46.1626 133.583 45.5022 128.303 55.0154C122.814 64.9062 126 82.0214 126 93C118.846 80.7436 114.406 61.8949 103.895 52.2245C97.2709 46.1303 85.3414 46.644 81 55z"/>
<path style="fill:#c65f66; stroke:none;" d="M363 48L364 49L363 48M52 49L53 50L52 49M364 49L365 50L364 49M50 50L51 51L50 50M366 50L367 51L366 50z"/>
<path style="fill:#f9ef14; stroke:none;" d="M48 51L49 52L48 51z"/>
<path style="fill:#c65f66; stroke:none;" d="M49 51L50 52L49 51M367 51L370 53L367 51M47.6667 52.3333L48.3333 52.6667L47.6667 52.3333M93.6667 52.3333L94.3333 52.6667L93.6667 52.3333M242 52L242 53L274 53L242 52M46 53L47 54L46 53M79 53L80 54L79 53M88 53L89 54L88 53z"/>
<path style="fill:#f9ef14; stroke:none;" d="M126 106C121.686 91.0262 111.97 71.9806 103.301 59.0154C99.7662 53.7293 93.001 50.6428 87.1088 54.7423C80.3328 59.4566 83 72.8382 83 80C83 103.972 82.3798 128.037 83.0147 152C83.2062 159.231 88.2127 168.394 96.9568 165.092C107.626 161.063 103 134.14 103 125C103 121.957 101.504 112.704 105.275 111.346C109.418 109.853 112.971 120.359 114.219 123C119.679 134.56 124.019 148.681 131.637 158.985C135.373 164.037 142.519 167.35 147.486 161.721C152.349 156.21 150 143.833 150 137L150 73C150 65.3527 150.717 51.4669 139.001 53.2438C131.763 54.3414 131.01 61.0204 131 67C130.985 75.7991 135.443 102.528 126 106z"/>
<path style="fill:#c65f66; stroke:none;" d="M98 53L99 54L98 53M135.667 53.3333L136.333 53.6667L135.667 53.3333M144 53L145 54L144 53M238 53L239 54L238 53z"/>
<path style="fill:#f9ef14; stroke:none;" d="M239.001 53.7423C225.897 58.7744 230 81.0772 230 92L230 141C230 148.916 230.136 158.005 237.105 163.348C244.058 168.678 254.823 167 263 167C268.904 167 276.608 168.112 281.89 164.86C286.927 161.76 286.076 153.011 280.867 150.357C272.86 146.278 263.387 152.625 255.105 146.2C249.212 141.628 250 134.68 250 128C250 112.564 248.571 96.3553 250.105 81C252.023 61.7946 274.32 75.9225 282.258 66.5664C286.283 61.8221 282.22 54.8828 276.996 53.4336C268.485 51.0725 247.245 50.5761 239.001 53.7423z"/>
<path style="fill:#c65f66; stroke:none;" d="M278 53L279 54L278 53M290 53L291 54L290 53M300.667 53.3333L301.333 53.6667L300.667 53.3333z"/>
<path style="fill:#f9ef14; stroke:none;" d="M302 53.4792C282.04 57.6007 289 92.0427 289 107L289 142C289 147.639 288.2 153.934 291.228 158.985C298.529 171.159 329.798 169.14 342 166.319C362.069 161.68 355 127.509 355 112L355 77C355 71.8784 355.937 65.5867 353.142 61.0147C345.661 48.7797 314.432 50.9122 302 53.4792z"/>
<path style="fill:#c65f66; stroke:none;" d="M342.667 53.3333L343.333 53.6667L342.667 53.3333M370 53L371 54L370 53M44 54L45 55L44 54M65 54L66 55L65 54z"/>
<path style="fill:#f9ef14; stroke:none;" d="M66.0185 54.7461C57.5758 57.9778 60 70.9311 60 78L60 146C60 153.169 60.6107 166.935 71.9568 162.812C80.4061 159.741 78 146.988 78 140L78 72C78 64.9809 77.4922 50.3543 66.0185 54.7461z"/>
<path style="fill:#c65f66; stroke:none;" d="M72 54L73 55L72 54M80 54L81 55L80 54M86 54L87 55L86 54M134 54L135 55L134 54M146 54L147 55L146 54M187 54L188 55L187 54z"/>
<path style="fill:#f9ef14; stroke:none;" d="M192 99C192.794 108.718 196.76 118.712 199.659 128C202.671 137.65 203.876 153.061 210.569 160.852C214.38 165.289 223.97 165.555 225.682 158.981C227.694 151.254 222.925 141.263 220.659 134C215.387 117.104 210.758 99.9737 205.721 83C203.418 75.2402 201.544 55.0845 190.999 54.3372C180.628 53.6022 179.281 68.9868 177.29 76C172.476 92.9629 167.968 110.011 163.255 127C160.824 135.761 156.236 145.776 156.591 155C156.965 164.73 169.121 166.973 173.911 158.981C184.017 142.118 179.051 113.824 192 99z"/>
<path style="fill:#c65f66; stroke:none;" d="M193 54L194 55L193 54M236 54L237 55L236 54M280 54L281 55L280 54M289 54L290 55L289 54M297 54L298 55L297 54M346 54L347 55L346 54M371.667 54.3333L372.333 54.6667L371.667 54.3333M43 55L44 56L43 55M63 55L64 56L63 55M74 55L75 56L74 55M85 55L86 56L85 55M133 55L134 56L133 55M147 55L148 56L147 55M185 55L186 56L185 55M235 55L236 56L235 55M281 55L282 56L281 55M288 55L289 56L288 55M296 55L297 56L296 55M347 55L348 56L347 55M373 55L374 56L373 55M42 56L43 57L42 56M62 56L63 57L62 56M75 56L76 57L75 56M101 56L102 57L101 56M132 56L133 57L132 56M148 56L149 57L148 56M184 56L185 57L184 56M234 56L235 57L234 56M282 56L283 57L282 56M294 56L295 57L294 56M349 56L350 57L349 56M374 56L375 57L374 56M41 57L42 58L41 57M61 57L62 58L61 57M76 57L77 58L76 57M102 57L103 58L102 57M183 57L184 58L183 57M233 57L234 58L233 57M293 57L294 58L293 57M350 57L351 58L350 57M375 57L376 58L375 57M39 58L40 59L39 58M83 58L84 59L83 58M131 58L132 59L131 58M283 58L284 59L283 58M292 58L293 59L292 58M351 58L352 59L351 58M376 58L379 60L376 58M38 59L39 60L38 59M60.3333 59.6667L60.6667 60.3333L60.3333 59.6667M77 59L78 60L77 59M103 59L104 60L103 59M149.333 59.6667L149.667 60.3333L149.333 59.6667M198 59L199 60L198 59M352 59L353 60L352 59M37 60L38 61L37 60M291 60L292 61L291 60M379 60L380 61L379 60M36 61L37 62L36 61M199 61L200 62L199 61M290 61L291 62L290 61M380 61L381 62L380 61M35 62L36 63L35 62M381 62L382 63L381 62M34 63L35 64L34 63M180 63L181 64L180 63M289 63L290 64L289 63M354 63L355 64L354 63M382 63L383 64L382 63M33 64L34 65L33 64M200 64L201 65L200 64M230.333 64.6667L230.667 65.3333L230.333 64.6667M383 64L384 65L383 64M32 65L33 66L32 65M283 65L284 66L283 65M384 65L385 66L384 65M31 66L32 67L31 66M385 66L386 67L385 66M30 67L31 68L30 67M179 67L180 68L179 67M288 67L288 152L289 152L289 93L288 67M355 67L355 153L356 153L356 94L355 67M386 67L387 68L386 67M29 68L30 69L29 68M201 68L202 69L201 68M280 68L281 69L280 68M387 68L388 69L387 68M28 69L29 70L28 69M264 69L264 70L277 70L264 69M388 69L389 70L388 69M27 70L28 71L27 70M178.333 70.6667L178.667 71.3333L178.333 70.6667M257.667 70.3333L258.333 70.6667L257.667 70.3333M389 70L390 71L389 70M26 71L27 72L26 71M109 71L110 72L109 71M202 71L203 72L202 71M255 71L256 72L255 71M390 71L391 72L390 71M25.3333 72.6667L25.6667 73.3333L25.3333 72.6667M253 72L254 73L253 72M283.333 72.6667L283.667 73.3333L283.333 72.6667M316.667 72.3333L317.333 72.6667L316.667 72.3333z"/>
<path style="fill:#2b0e03; stroke:none;" d="M318 72.5725C313.627 73.8271 310.05 77.4937 309.228 82C307.113 93.6043 309 107.202 309 119C309 125.224 307.765 133.011 309.653 138.999C311.674 145.412 318.538 148.955 325 147.463C330.367 146.224 334.033 142.274 335.316 137C338.08 125.631 336 111.668 336 100C336 93.8771 336.904 86.8516 334.736 81.0008C332.203 74.1629 325.002 70.5638 318 72.5725z"/>
<path style="fill:#c65f66; stroke:none;" d="M327 72L328 73L327 72M110 73L111 74L110 73M252 73L253 74L252 73z"/>
<path style="fill:#db0d1b; stroke:none;" d="M279.941 73.5725C273.881 73.4116 261.31 72.421 256.514 76.7384C250.141 82.4744 254 104.952 254 113C254 123.742 249.644 144.07 265 144.957C269.284 145.204 278.861 146.621 282.397 143.821C285.208 141.594 284 135.141 284 132L284 98C284 92.9931 286.859 73.7562 279.941 73.5725z"/>
<path style="fill:#c65f66; stroke:none;" d="M328.667 73.3333L329.333 73.6667L328.667 73.3333M391 73L392 74L391 73M24 74L25 75L24 74M177.333 74.6667L177.667 75.3333L177.333 74.6667M203 74L204 75L203 74M313 74L314 75L313 74M330 74L331 75L330 74M392 74L393 75L392 74M23 75L24 76L23 75M111 75L112 76L111 75M251 75L252 76L251 75M312 75L313 76L312 75M331 75L332 76L331 75M393 75L394 76L393 75M311 76L312 77L311 76z"/>
<path style="fill:#db0d1b; stroke:none;" d="M320.04 76.6088C313.046 78.2585 313.002 85.2118 313 91C312.995 105.164 310.996 121.015 313.214 134.999C314.154 140.93 319.1 144.195 324.985 142.566C331.345 140.804 330.998 134.346 331 129C331.005 114.687 333.352 98.0701 330.772 84.0008C329.857 79.0144 325.164 75.4003 320.04 76.6088z"/>
<path style="fill:#c65f66; stroke:none;" d="M332 76L333 77L332 76M112 77L113 78L112 77M250 77L251 78L250 77M333 77L334 78L333 77M21 78L22 79L21 78M176 78L177 79L176 78M204 78L205 79L204 78M395 78L396 79L395 78M20.3333 79.6667L20.6667 80.3333L20.3333 79.6667M113 79L114 80L113 79M309 79L310 80L309 79M315 79L316 80L315 79M334 79L335 80L334 79M396 80L397 81L396 80M19.3333 81.6667L19.6667 82.3333L19.3333 81.6667M114 81L115 82L114 81M175.333 81.6667L175.667 82.3333L175.333 81.6667M205.333 81.6667L205.667 82.3333L205.333 81.6667M335 81L335 84L336 84L335 81M397 81L398 82L397 81M308 82L308 138L309 138L309 100L308 82M18 83L19 84L18 83M115 83L116 84L115 83M398 83L399 84L398 83M17 85L18 86L17 85M116 85L117 86L116 85M174.333 85.6667L174.667 86.3333L174.333 85.6667M206 85L207 86L206 85M399 85L400 86L399 85M16 87L17 88L16 87M117 87L118 88L117 87M207.333 87.6667L207.667 88.3333L207.333 87.6667M400 87L401 88L400 87M15 89L16 90L15 89M118 89L119 90L118 89M173 89L174 90L173 89M401 89L402 90L401 89M125 90L125 93L126 93L125 90M14.3333 91.6667L14.6667 92.3333L14.3333 91.6667M119 91L120 92L119 91z"/>
<path style="fill:#f9ef14; stroke:none;" d="M402 91L403 92L402 91z"/>
<path style="fill:#c65f66; stroke:none;" d="M172 92L173 93L172 92M208 92L209 93L208 92M402 92L403 93L402 92M13 93L13 96L14 96L13 93M120 93L121 94L120 93z"/>
<path style="fill:#f9ef14; stroke:none;" d="M403 94L404 95L403 94z"/>
<path style="fill:#c65f66; stroke:none;" d="M121 95L122 96L121 95M171.333 95.6667L171.667 96.3333L171.333 95.6667M209 95L210 96L209 95M403 95L404 96L403 95M122 97L123 98L122 97M12.3333 98.6667L12.6667 99.3333L12.3333 98.6667M210 98L211 99L210 98M404.333 98.6667L404.667 99.3333L404.333 98.6667M123 99L124 100L123 99M190 99L192 101L192 99L190 99M170 100L171 101L170 100M124 101L125 102L124 101M211.333 101.667L211.667 102.333L211.333 101.667M11 102L11 106L12 106L11 102M189.333 102.667L189.667 103.333L189.333 102.667M405 102L405 106L406 106L405 102M125 103L126 104L125 103M169 103L170 104L169 103M192 103L193 104L192 103M130 104L131 105L130 104M126 105L126 106L129 106L126 105M212.333 105.667L212.667 106.333L212.333 105.667M168.333 106.667L168.667 107.333L168.333 106.667M188.333 106.667L188.667 107.333L188.333 106.667M193.333 107.667L193.667 108.333L193.333 107.667M104.667 110.333L105.333 110.667L104.667 110.333M167.333 110.667L167.667 111.333L167.333 110.667M187 110L188 111L187 110M194.333 110.667L194.667 111.333L194.333 110.667M103 111L103 157L104 157C104 143.997 108.01 122.939 103 111M108 111L109 112L108 111M214 112L215 113L214 112M109 113L110 114L109 113M186.333 113.667L186.667 114.333L186.333 113.667M195.333 113.667L195.667 114.333L195.333 113.667M166 114L167 115L166 114M110 115L111 116L110 115M215.333 115.667L215.667 116.333L215.333 115.667M11 116L11 120L12 120L11 116M405 116L405 120L406 120L405 116M111 117L112 118L111 117M165.333 117.667L165.667 118.333L165.333 117.667M185.333 117.667L185.667 118.333L185.333 117.667M190 117L190 121L191 121L192 117L190 117M196 117L197 118L196 117M112 119L113 120L112 119z"/>
<path style="fill:#db0d1b; stroke:none;" d="M190 119L191 120L190 119z"/>
<path style="fill:#c65f66; stroke:none;" d="M216 119L217 120L216 119z"/>
<path style="fill:#db0d1b; stroke:none;" d="M189 121L190 124L193 120L189 121z"/>
<path style="fill:#c65f66; stroke:none;" d="M197.333 120.667L197.667 121.333L197.333 120.667M113 121L114 122L113 121M164 121L165 122L164 121M184.333 121.667L184.667 122.333L184.333 121.667M12.3333 122.667L12.6667 123.333L12.3333 122.667M189.667 122.333L190.333 122.667L189.667 122.333M192 122L193 123L192 122M217 122L218 123L217 122M404.333 122.667L404.667 123.333L404.333 122.667M108 123L108 126L109 126L108 123M114 123L115 124L114 123M198 124L199 125L198 124M115.333 125.667L115.667 126.333L115.333 125.667M163.333 125.667L163.667 126.333L163.333 125.667M183 125L184 126L183 125M218.333 125.667L218.667 126.333L218.333 125.667M223 125L224 126L223 125M13.3333 126.667L13.6667 127.333L13.3333 126.667M403 126L404 127L403 126M199 127L200 128L199 127M224 127L226 130L224 127M116 128L117 129L116 128M162.333 128.667L162.667 129.333L162.333 128.667M182.333 128.667L182.667 129.333L182.333 128.667M188 129L188 130L195 131L188 129M14.3333 129.667L14.6667 130.333L14.3333 129.667z"/>
<path style="fill:#f9ef14; stroke:none;" d="M189.429 130.086C185.237 132.534 187.868 142.389 192.687 139.248C196.577 136.713 194.489 127.132 189.429 130.086z"/>
<path style="fill:#c65f66; stroke:none;" d="M219.333 129.667L219.667 130.333L219.333 129.667M402 129L403 130L402 129M117 130L118 131L117 130M200.333 130.667L200.667 131.333L200.333 130.667z"/>
<path style="fill:#f9ef14; stroke:none;" d="M402 130L403 131L402 130z"/>
<path style="fill:#c65f66; stroke:none;" d="M187 131L188 132L187 131M401.333 131.667L401.667 132.333L401.333 131.667M15 132L16 133L15 132M118 132L119 133L118 132M155 132L155 136L156 136L155 132M161 132L162 133L161 132M181 133L182 134L181 133M195 133L195 137L196 137L195 133M220 133L221 134L220 133M16 134L17 135L16 134M119 134L120 135L119 134M186.333 134.667L186.667 135.333L186.333 134.667M201 134L202 135L201 134M400 134L401 135L400 134M160.333 135.667L160.667 136.333L160.333 135.667M17 136L18 137L17 136M120 136L121 137L120 136M180.333 136.667L180.667 137.333L180.333 136.667M221 136L222 137L221 136M335.333 136.667L335.667 137.333L335.333 136.667M399 136L400 137L399 136M202.333 137.667L202.667 138.333L202.333 137.667M18 138L19 139L18 138M121 138L122 139L121 138M187 138L188 139L187 138M194 138L195 139L194 138M398 138L399 139L398 138M19.3333 139.667L19.6667 140.333L19.3333 139.667M188 139L189 140L188 139M193 139L194 140L193 139M222.333 139.667L222.667 140.333L222.333 139.667M309.333 139.667L309.667 140.333L309.333 139.667M397.333 139.667L397.667 140.333L397.333 139.667M122 140L123 141L122 140M159 140L160 141L159 140M179 140L180 141L179 140M189 140L190 141L189 140M192 140L193 141L192 140M334 140L335 141L334 140M20.3333 141.667L20.6667 142.333L20.3333 141.667M198.333 141.667L198.667 142.333L198.333 141.667M203 141L204 142L203 141M310 141L311 142L310 141M396 141L397 142L396 141M123 142L124 143L123 142M184 142L184 144L186 144L184 142M251 142L252 143L251 142M21 143L22 144L21 143M158 143L159 144L158 143M178 143L178 146L179 146L178 143M223 143L224 144L223 143M311 143L312 144L311 143M332 143L333 144L332 143M395 143L396 144L395 143M22 144L24 147L22 144M204.333 144.667L204.667 145.333L204.333 144.667M252 144L253 145L252 144M282.667 144.333L283.333 144.667L282.667 144.333M312 144L313 145L312 144M331 144L332 145L331 144M394 144L395 145L394 144M253 145L254 146L253 145M313 145L314 146L313 145M330 145L331 146L330 145M125 146L126 147L125 146M157.333 146.667L157.667 147.333L157.333 146.667M224 146L225 147L224 146M315 146L316 147L315 146M328 146L329 147L328 146M393 146L394 147L393 146M24 147L25 148L24 147M256 147L257 148L256 147M318 147L319 148L318 147M325.667 147.333L326.333 147.667L325.667 147.333M392 147L393 148L392 147M177 148L178 149L177 148M205 148L206 149L205 148M258 148L259 149L258 148M25 149L26 150L25 149M225.333 149.667L225.667 150.333L225.333 149.667M261 149L261 150L264 150L261 149M273 149L273 150L277 150L273 149M279.667 149.333L280.333 149.667L279.667 149.333M26 150L27 151L26 150M156 150L156 154L157 154L156 150M282 150L283 151L282 150M27 151L28 152L27 151M127 151L128 152L127 151M176.333 151.667L176.667 152.333L176.333 151.667M206 151L207 152L206 151M283 151L284 152L283 151M389 151L390 152L389 151M28 152L29 153L28 152M230 152L231 153L230 152M388 152L389 153L388 152M29 153L30 154L29 153M128 153L129 154L128 153M284.333 153.667L284.667 154.333L284.333 153.667M387 153L388 154L387 153M30 154L31 155L30 154M207 154L208 155L207 154M386 154L387 155L386 154M31 155L32 156L31 155M129 155L130 156L129 155M175 155L176 156L175 155M226 155L226 159L227 159L226 155M231 155L232 156L231 155M289.333 155.667L289.667 156.333L289.333 155.667M354.333 155.667L354.667 156.333L354.333 155.667M385 155L386 156L385 155M32 156L33 157L32 156M156 156L156 159L157 159L156 156M384 156L385 157L384 156M33 157L34 158L33 157M60 157L61 158L60 157M77 157L78 158L77 157M83 157L84 158L83 157M232 157L233 158L232 157M383 157L384 158L383 157M34 158L35 159L34 158M149.333 158.667L149.667 159.333L149.333 158.667M174 158L175 159L174 158M285 158L286 159L285 158M353 158L354 159L353 158M382 158L383 159L382 158M35 159L36 160L35 159M76 159L77 160L76 159M102 159L103 160L102 159M209 159L210 160L209 159M233 159L234 160L233 159M291 159L292 160L291 159M381 159L382 160L381 159M36 160L37 161L36 160M61 160L62 161L61 160M132 160L133 161L132 160M157 160L158 161L157 160M173 160L174 161L173 160M380 160L381 161L380 160M37 161L38 162L37 161M85 161L86 162L85 161M101 161L102 162L101 161M133 161L134 162L133 161M148 161L149 162L148 161M158 161L159 162L158 161M172 161L173 162L172 161M225 161L226 162L225 161M285 161L286 162L285 161M379 161L380 162L379 161M38 162L39 163L38 162M64 162L65 163L64 162M73 162L74 163L73 162M134 162L135 163L134 162M147 162L148 163L147 162M159 162L160 163L159 162M171 162L172 163L171 162M211 162L212 163L211 162M224 162L225 163L224 162M293 162L294 163L293 162M350 162L351 163L350 162M378 162L379 163L378 162M39 163L42 165L39 163M66.6667 163.333L67.3333 163.667L66.6667 163.333M70.6667 163.333L71.3333 163.667L70.6667 163.333M80 163L81 164L80 163M100 163L101 164L100 163M135 163L136 164L135 163M146 163L147 164L146 163M170 163L171 164L170 163M212 163L213 164L212 163M223 163L224 164L223 163M230 163L231 164L230 163M284 163L285 164L284 163M349 163L350 164L349 163M376 163L377 164L376 163M81 164L82 165L81 164M88 164L89 165L88 164M99 164L100 165L99 164M137 164L138 165L137 164M143.667 164.333L144.333 164.667L143.667 164.333M153 164L154 165L153 164M163 164L163 165L168 165L163 164M215 164L215 165L221 165L215 164M229 164L230 165L229 164M238 164L239 165L238 164M283 164L284 165L283 164M296 164L297 165L296 164M347 164L348 165L347 164M355 164L356 165L355 164M375 164L376 165L375 164M42 165L43 166L42 165M90.6667 165.333L91.3333 165.667L90.6667 165.333M96 165L97 166L96 165M240 165L241 166L240 165M281 165L282 166L281 165M289 165L290 166L289 165M298 165L299 166L298 165M345 165L346 166L345 165M374 165L375 166L374 165M43 166L44 167L43 166M243.667 166.333L244.333 166.667L243.667 166.333M277.667 166.333L278.333 166.667L277.667 166.333M301.667 166.333L302.333 166.667L301.667 166.333M341.667 166.333L342.333 166.667L341.667 166.333M373 166L374 167L373 166M44.6667 167.333L45.3333 167.667L44.6667 167.333M372 167L373 168L372 167M46 168L47 169L46 168M370 168L371 169L370 168M47 169L48 170L47 169M368.667 169.333L369.333 169.667L368.667 169.333M48.6667 170.333L49.3333 170.667L48.6667 170.333M367 170L368 171L367 170M50 171L51 172L50 171M364 173L367 171L364 173M51.6667 172.333L52.3333 172.667L51.6667 172.333M53 173L54 174L53 173M363 173L364 174L363 173M361.667 174.333L362.333 174.667L361.667 174.333M56 175L57 176L56 175M359.667 175.333L360.333 175.667L359.667 175.333M58 176L59 177L58 176M358 176L359 177L358 176M59.6667 177.333L60.3333 177.667L59.6667 177.333M356.667 177.333L357.333 177.667L356.667 177.333M61 178L62 179L61 178M354.667 178.333L355.333 178.667L354.667 178.333M63.6667 179.333L64.3333 179.667L63.6667 179.333M352.667 179.333L353.333 179.667L352.667 179.333M65 180L66 181L65 180M351 180L352 181L351 180M67 181L68 182L67 181M349 181L350 182L349 181M69 182L70 183L69 182M347 182L348 183L347 182M71 183L72 184L71 183M344.667 183.333L345.333 183.667L344.667 183.333M73 184L74 185L73 184M343 184L344 185L343 184M75 185L76 186L75 185M341 185L342 186L341 185M77.6667 186.333L78.3333 186.667L77.6667 186.333M338.667 186.333L339.333 186.667L338.667 186.333M79.6667 187.333L80.3333 187.667L79.6667 187.333M336 187L337 188L336 187M82 188L83 189L82 188M334 188L335 189L334 188M84 189L85 190L84 189M332 189L333 190L332 189M87 190L88 191L87 190M329 190L330 191L329 190M89.6667 191.333L90.3333 191.667L89.6667 191.333M326.667 191.333L327.333 191.667L326.667 191.333M91.6667 192.333L92.3333 192.667L91.6667 192.333M324 192L325 193L324 192M94.6667 193.333L95.3333 193.667L94.6667 193.333M321.667 193.333L322.333 193.667L321.667 193.333M97.6667 194.333L98.3333 194.667L97.6667 194.333M317.667 194.333L318.333 194.667L317.667 194.333M100.667 195.333L101.333 195.667L100.667 195.333M315.667 195.333L316.333 195.667L315.667 195.333M103.667 196.333L104.333 196.667L103.667 196.333M312.667 196.333L313.333 196.667L312.667 196.333M106 197L106 198L109 198L106 197M308 197L308 198L311 198L308 197M109 198L109 199L112 199L109 198M305.667 198.333L306.333 198.667L305.667 198.333M113.667 199.333L114.333 199.667L113.667 199.333M302.667 199.333L303.333 199.667L302.667 199.333M116 200L116 201L119 201L116 200M298.667 200.333L299.333 200.667L298.667 200.333M121.667 201.333L122.333 201.667L121.667 201.333M293 201L293 202L296 202L293 201M125.667 202.333L126.333 202.667L125.667 202.333M290.667 202.333L291.333 202.667L290.667 202.333M129 203L129 204L132 204L129 203M285 203L285 204L288 204L285 203M133 204L133 205L136 205L133 204M281 204L281 205L284 205L281 204M139 205L139 206L142 206L139 205M275 205L275 206L278 206L275 205M144 206L144 207L147 207L144 206M270 206L270 207L273 207L270 206M149 207L149 208L153 208L149 207M264 207L264 208L267 208L264 207M156 208L156 209L162 209L156 208M255 208L255 209L261 209L255 208M164 209L164 210L170 210L164 209M247 209L247 210L252 210L247 209M174 210L174 211L181 211L174 210M235 210L235 211L243 211L235 210M188 211L188 212L229 212C218.25 207.489 199.696 211 188 211z"/>
</svg>
