<?xml version="1.0" standalone="yes"?>
<svg xmlns="http://www.w3.org/2000/svg" width="211" height="69">
<path style="fill:#fbfbfc; stroke:none;" d="M0 0L0 69L211 69L211 0L0 0z"/>
<path style="fill:#6e919f; stroke:none;" d="M38 7L36 10L38 7z"/>
<path style="fill:#1d1d28; stroke:none;" d="M39 8.30556C33.6599 9.42881 21.1349 22.2544 22.1613 28C22.8611 31.9177 27.3532 35.3527 30.0008 37.9992C32.7071 40.7045 36.5956 45.894 41 44.9136C46.2333 43.7486 58.8322 31.8088 57.9552 26C57.4542 22.6815 53.8549 19.397 51.7137 17.0147C49.0734 14.0769 43.4924 7.36062 39 8.30556z"/>
<path style="fill:#6e919f; stroke:none;" d="M42 8L43 9L42 8M43 9L44 10L43 9z"/>
<path style="fill:#2d7497; stroke:none;" d="M35 10L36 11L35 10M44 10L45 11L44 10M45 11L46 12L45 11M28 17L29 18L28 17z"/>
<path style="fill:#6e919f; stroke:none;" d="M27 18L28 19L27 18M26 19L27 20L26 19z"/>
<path style="fill:#2d7497; stroke:none;" d="M53 19L54 20L53 19z"/>
<path style="fill:#6e919f; stroke:none;" d="M54 20L55 21L54 20M55 21L56 22L55 21M56 22L57 23L56 22M103 22L102 24L103 22z"/>
<path style="fill:#2d7497; stroke:none;" d="M104 22L105 23L104 22z"/>
<path style="fill:#6e919f; stroke:none;" d="M105 22L107 24L105 22M166 22L167 23L166 22M176 22L175 27L176 27L178 23L176 22M23 23L24 24L23 23z"/>
<path style="fill:#1d1d28; stroke:none;" d="M89 58C93.8599 56.4304 93.3057 51.4914 97.2747 49.0278C106.44 43.339 113.556 50.6476 117 58L119 58L120 57L106 23C97.9815 25.5897 90.3855 49.9533 89 58z"/>
<path style="fill:#2d7497; stroke:none;" d="M165 23L166 24L165 23z"/>
<path style="fill:#1d1d28; stroke:none;" d="M166 23L165 33C152.467 30.6816 142.606 46.1311 153.228 55.5664C159.118 60.7979 167.874 56.5149 168.246 48.9992C168.425 45.3777 168 41.6379 168 38L168 23L166 23z"/>
<path style="fill:#6e919f; stroke:none;" d="M168 23L169 24L168 23z"/>
<path style="fill:#1d1d28; stroke:none;" d="M176 23L177 28L178 28L179 23L176 23z"/>
<path style="fill:#6e919f; stroke:none;" d="M186 23L187 24L186 23z"/>
<path style="fill:#1d1d28; stroke:none;" d="M187 23C184.876 30.1858 183.84 46.175 187.457 52.956C191.751 61.0063 202.684 58.4503 204 50C201.368 51.1634 198.005 54.2824 195.019 53.9637C187.56 53.1677 189.888 39.6722 191 35L202 35C199.385 30.9671 194.386 32 190 32L187 23z"/>
<path style="fill:#2d7497; stroke:none;" d="M188 23L189 24L188 23z"/>
<path style="fill:#6e919f; stroke:none;" d="M189 23L190 24L189 23M22 24L23 25L22 24z"/>
<path style="fill:#2d7497; stroke:none;" d="M106 24L107 25L106 24M168 24L168 49L169 49L168 24z"/>
<path style="fill:#6e919f; stroke:none;" d="M179 24L179 27L180 27L179 24M21 25L22 26L21 25M58 25L59 26L58 25M101 25L102 26L101 25M107 25L108 26L107 25z"/>
<path style="fill:#2d7497; stroke:none;" d="M101 26L102 27L101 26M107 26L108 27L107 26z"/>
<path style="fill:#6e919f; stroke:none;" d="M20 27L21 28L20 27z"/>
<path style="fill:#2d7497; stroke:none;" d="M59 27L41 45L41 47C47.3189 51.4902 60.2831 62.1725 68.7716 58.3958C78.987 53.8509 63.1915 31.3767 59 27M176 27L177 28L176 27z"/>
<path style="fill:#6e919f; stroke:none;" d="M178 27L179 28L178 27z"/>
<path style="fill:#ce3569; stroke:none;" d="M39 45L22 28C15.4669 31.338 3.0101 50.2271 9.6034 57.4853C16.4864 65.0625 35.7594 51.3815 39 45z"/>
<path style="fill:#6e919f; stroke:none;" d="M60 28L61 29L60 28M100 28L101 29L100 28M108 28L109 29L108 28M61 29L62 30L61 29z"/>
<path style="fill:#2d7497; stroke:none;" d="M104 29L105 30L104 29z"/>
<path style="fill:#6e919f; stroke:none;" d="M99 30L100 31L99 30M103 31L103 32L106 32L103 31M109 30L110 31L109 30M17 31L18 32L17 31M62 31L63 32L62 31z"/>
<path style="fill:#2d7497; stroke:none;" d="M99 31L100 32L99 31z"/>
<path style="fill:#fbfbfc; stroke:none;" d="M104 31L99 44L110 44L104 31z"/>
<path style="fill:#2d7497; stroke:none;" d="M109 31L110 32L109 31z"/>
<path style="fill:#6e919f; stroke:none;" d="M126 31L127 32L126 31M141 31L142 32L141 31M158.667 31.3333L159.333 31.6667L158.667 31.3333M177 31L178 32L177 31M63 32L64 33L63 32M124 32L125 33L124 32z"/>
<path style="fill:#1d1d28; stroke:none;" d="M125 32C123.565 38.0271 122.591 47.2029 125.573 52.9059C128.725 58.9361 137.344 59.5166 141.258 53.8912C144.969 48.5573 143 38.2218 143 32L140 32C140 37.2606 141.478 45.2125 138.972 49.9799C136.756 54.198 131.654 55.5189 129.028 50.8904C126.067 45.6722 128.707 37.7741 127 32L125 32z"/>
<path style="fill:#2d7497; stroke:none;" d="M127 32L128 33L127 32z"/>
<path style="fill:#6e919f; stroke:none;" d="M139 32L139 50L140 50L139 32M155 32L156 33L155 32M162 32L163 33L162 32M164 32L165 33L164 32M175.333 32.6667L175.667 33.3333L175.333 32.6667z"/>
<path style="fill:#1d1d28; stroke:none;" d="M176 32L176 58L179 58L179 32L176 32z"/>
<path style="fill:#2d7497; stroke:none;" d="M201 32L202 33L201 32z"/>
<path style="fill:#6e919f; stroke:none;" d="M98 33L99 34L98 33z"/>
<path style="fill:#2d7497; stroke:none;" d="M102 33L103 34L102 33M106 33L107 34L106 33z"/>
<path style="fill:#6e919f; stroke:none;" d="M110 33L111 34L110 33z"/>
<path style="fill:#2d7497; stroke:none;" d="M124 33L125 34L124 33z"/>
<path style="fill:#6e919f; stroke:none;" d="M143 33L143 51L144 51L143 33M153 33L154 34L153 33M179 33L179 57L180 57L179 33M202 33L203 34L202 33M64 34L65 35L64 34M102 34L103 35L102 34M106 34L107 35L106 34M152 34L153 35L152 34z"/>
<path style="fill:#2d7497; stroke:none;" d="M175 34L176 35L175 34z"/>
<path style="fill:#6e919f; stroke:none;" d="M65 35L66 36L65 35M97 35L98 36L97 35M111 35L112 36L111 35M151 35L152 36L151 35z"/>
<path style="fill:#2d7497; stroke:none;" d="M158 35L158 36L161 36L158 35z"/>
<path style="fill:#6e919f; stroke:none;" d="M175 35L175 58L176 58L175 35z"/>
<path style="fill:#2d7497; stroke:none;" d="M191.667 35.3333L192.333 35.6667L191.667 35.3333M194 35L195 36L194 35M199.667 35.3333L200.333 35.6667L199.667 35.3333z"/>
<path style="fill:#6e919f; stroke:none;" d="M201 35L202 36L201 35M101 36L102 37L101 36M107 36L108 37L107 36M150.333 36.6667L150.667 37.3333L150.333 36.6667M156 36L157 37L156 36z"/>
<path style="fill:#fbfbfc; stroke:none;" d="M157.228 36.7616C151.458 39.1718 152.449 56.3586 160.867 53.3526C166.981 51.169 165.38 33.3561 157.228 36.7616z"/>
<path style="fill:#2d7497; stroke:none;" d="M162 36L163 37L162 36z"/>
<path style="fill:#6e919f; stroke:none;" d="M66 37L67 38L66 37M96 37L97 38L96 37M112 37L113 38L112 37M163 37L164 38L163 37z"/>
<path style="fill:#2d7497; stroke:none;" d="M96 38L97 39L96 38z"/>
<path style="fill:#6e919f; stroke:none;" d="M100 38L101 39L100 38M108 38L109 39L108 38z"/>
<path style="fill:#2d7497; stroke:none;" d="M112 38L113 39L112 38z"/>
<path style="fill:#6e919f; stroke:none;" d="M154 38L155 39L154 38z"/>
<path style="fill:#2d7497; stroke:none;" d="M164 38L165 39L164 38z"/>
<path style="fill:#6e919f; stroke:none;" d="M67 39L68 40L67 39M149 39L149 51L150 51L149 39z"/>
<path style="fill:#2d7497; stroke:none;" d="M153 39L154 40L153 39z"/>
<path style="fill:#6e919f; stroke:none;" d="M164 39L164 48L165 48L164 39M95 40L96 41L95 40M99.3333 40.6667L99.6667 41.3333L99.3333 40.6667z"/>
<path style="fill:#2d7497; stroke:none;" d="M109 40L110 41L109 40z"/>
<path style="fill:#6e919f; stroke:none;" d="M113 40L114 41L113 40M153 40L153 50L154 50L153 40M11 41L12 42L11 41M68 41L69 42L68 41M109 41L110 42L109 41M94 42L95 43L94 42z"/>
<path style="fill:#2d7497; stroke:none;" d="M98 42L99 43L98 42M110 42L111 43L110 42z"/>
<path style="fill:#6e919f; stroke:none;" d="M114 42L115 43L114 42M10 43L11 44L10 43M69 43L70 44L69 43M98 43L99 44L98 43M110 43L111 44L110 43M93 44L94 45L93 44M115 44L116 45L115 44M9 45L10 46L9 45M70.3333 45.6667L70.6667 46.3333L70.3333 45.6667z"/>
<path style="fill:#2d7497; stroke:none;" d="M93 45L94 46L93 45M115 45L116 46L115 45z"/>
<path style="fill:#6e919f; stroke:none;" d="M39.6667 46.3333L40.3333 46.6667L39.6667 46.3333M92.3333 46.6667L92.6667 47.3333L92.3333 46.6667M41 47L42 48L41 47M116 47L117 48L116 47M43 48L44 49L43 48M71.3333 48.6667L71.6667 49.3333L71.3333 48.6667M96 48L97 49L96 48M112 48L113 49L112 48M35 49L36 50L35 49M44 49L45 50L44 49M91 49L92 50L91 49z"/>
<path style="fill:#2d7497; stroke:none;" d="M95 49L96 50L95 49M113 49L114 50L113 49z"/>
<path style="fill:#6e919f; stroke:none;" d="M117 49L118 50L117 49M164.333 49.6667L164.667 50.3333L164.333 49.6667M202 49L203 50L202 49M95 50L96 51L95 50M113 50L114 51L113 50z"/>
<path style="fill:#2d7497; stroke:none;" d="M124 50L125 51L124 50z"/>
<path style="fill:#6e919f; stroke:none;" d="M128.333 50.6667L128.667 51.3333L128.333 50.6667z"/>
<path style="fill:#2d7497; stroke:none;" d="M139 50L140 51L139 50M153 50L154 51L153 50M168 50L169 51L168 50M201 50L202 51L201 50z"/>
<path style="fill:#6e919f; stroke:none;" d="M47 51L48 52L47 51M90 51L91 52L90 51M118 51L119 52L118 51M124 51L125 52L124 51M138 51L139 52L138 51z"/>
<path style="fill:#2d7497; stroke:none;" d="M164 51L165 52L164 51z"/>
<path style="fill:#6e919f; stroke:none;" d="M168 51L169 52L168 51z"/>
<path style="fill:#2d7497; stroke:none;" d="M186 51L187 52L186 51z"/>
<path style="fill:#6e919f; stroke:none;" d="M190 51L191 52L190 51M200 51L201 52L200 51M204.333 51.6667L204.667 52.3333L204.333 51.6667M7.33333 52.6667L7.66667 53.3333L7.33333 52.6667M49 52L50 53L49 52M72 52L72 55L73 55L72 52z"/>
<path style="fill:#2d7497; stroke:none;" d="M90 52L91 53L90 52z"/>
<path style="fill:#6e919f; stroke:none;" d="M94 52L95 53L94 52M114 52L115 53L114 52z"/>
<path style="fill:#2d7497; stroke:none;" d="M118 52L119 53L118 52z"/>
<path style="fill:#6e919f; stroke:none;" d="M129 52L130 53L129 52M142.333 52.6667L142.667 53.3333L142.333 52.6667z"/>
<path style="fill:#2d7497; stroke:none;" d="M150 52L151 53L150 52M154 52L155 53L154 52z"/>
<path style="fill:#6e919f; stroke:none;" d="M163 52L164 53L163 52M186 52L187 53L186 52M191 52L192 53L191 52M199 52L200 53L199 52M50 53L51 54L50 53M125 53L126 54L125 53M130 53L131 54L130 53M150 53L151 54L150 53z"/>
<path style="fill:#2d7497; stroke:none;" d="M155 53L156 54L155 53z"/>
<path style="fill:#6e919f; stroke:none;" d="M156 53L157 54L156 53M162 53L163 54L162 53M167 53L168 54L167 53z"/>
<path style="fill:#2d7497; stroke:none;" d="M187 53L188 54L187 53z"/>
<path style="fill:#6e919f; stroke:none;" d="M192 53L193 54L192 53M198 53L199 54L198 53M28 54L29 55L28 54M52 54L53 55L52 54M89 54L90 55L89 54z"/>
<path style="fill:#2d7497; stroke:none;" d="M93 54L94 55L93 54M115 54L116 55L115 54z"/>
<path style="fill:#6e919f; stroke:none;" d="M119 54L120 55L119 54z"/>
<path style="fill:#2d7497; stroke:none;" d="M132 54L133 55L132 54z"/>
<path style="fill:#6e919f; stroke:none;" d="M133 54L134 55L133 54z"/>
<path style="fill:#2d7497; stroke:none;" d="M134.667 54.3333L135.333 54.6667L134.667 54.3333z"/>
<path style="fill:#6e919f; stroke:none;" d="M141 54L142 55L141 54M151 54L152 55L151 54z"/>
<path style="fill:#2d7497; stroke:none;" d="M157 54L158 55L157 54z"/>
<path style="fill:#6e919f; stroke:none;" d="M158.667 54.3333L159.333 54.6667L158.667 54.3333z"/>
<path style="fill:#2d7497; stroke:none;" d="M160 54L161 55L160 54z"/>
<path style="fill:#6e919f; stroke:none;" d="M187 54L188 55L187 54z"/>
<path style="fill:#2d7497; stroke:none;" d="M193.667 54.3333L194.333 54.6667L193.667 54.3333z"/>
<path style="fill:#6e919f; stroke:none;" d="M195.667 54.3333L196.333 54.6667L195.667 54.3333M203 54L204 55L203 54M26 55L27 56L26 55M54 55L55 56L54 55M93 55L94 56L93 55M115 55L116 56L115 55M126 55L127 56L126 55z"/>
<path style="fill:#2d7497; stroke:none;" d="M140 55L141 56L140 55M152 55L153 56L152 55z"/>
<path style="fill:#6e919f; stroke:none;" d="M188 55L189 56L188 55M202 55L203 56L202 55M24 56L25 57L24 56M56 56L57 57L56 56M71.3333 56.6667L71.6667 57.3333L71.3333 56.6667M127 56L128 57L127 56z"/>
<path style="fill:#2d7497; stroke:none;" d="M128 56L129 57L128 56z"/>
<path style="fill:#6e919f; stroke:none;" d="M139 56L140 57L139 56M153 56L154 57L153 56z"/>
<path style="fill:#2d7497; stroke:none;" d="M164 56L165 57L164 56z"/>
<path style="fill:#6e919f; stroke:none;" d="M189 56L190 57L189 56M201 56L202 57L201 56M58 57L59 58L58 57M92 57L93 58L92 57M116 57L117 58L116 57z"/>
<path style="fill:#2d7497; stroke:none;" d="M119 57L120 58L119 57z"/>
<path style="fill:#6e919f; stroke:none;" d="M129 57L130 58L129 57z"/>
<path style="fill:#2d7497; stroke:none;" d="M137 57L138 58L137 57z"/>
<path style="fill:#6e919f; stroke:none;" d="M138 57L139 58L138 57M154 57L155 58L154 57z"/>
<path style="fill:#2d7497; stroke:none;" d="M155 57L156 58L155 57z"/>
<path style="fill:#6e919f; stroke:none;" d="M163 57L164 58L163 57M191 57L192 58L191 57M199 57L200 58L199 57M19 58L20 59L19 58M60.6667 58.3333L61.3333 58.6667L60.6667 58.3333M70 58L71 59L70 58M90.6667 58.3333L91.3333 58.6667L90.6667 58.3333M117.667 58.3333L118.333 58.6667L117.667 58.3333M131 58L131 59L136 59L131 58M157 58L157 59L161 59L157 58M176.667 58.3333L177.333 58.6667L176.667 58.3333M193 58L193 59L198 59L193 58M12 59L13 60L12 59M16 59L17 60L16 59M64 59L64 60L68 60L64 59z"/>
</svg>
