<?xml version="1.0" standalone="yes"?>
<svg xmlns="http://www.w3.org/2000/svg" width="200" height="200">
<path style="fill:#fffefe; stroke:none;" d="M0 0L0 200L200 200L200 0L0 0z"/>
<path style="fill:#a0a7ad; stroke:none;" d="M98 48L98 49L107 49L98 48z"/>
<path style="fill:#0e9cd2; stroke:none;" d="M98 49C97.9645 59.0587 92.1388 57.6861 86.2245 64.1049C82.9383 67.6715 81.1085 73.3453 80 78L84 78L83.4861 96.8117L78 105L122 105C119.948 98.4039 109.076 84.434 119 78L110.696 62.7091L100 54L107 54L107 49L98 49z"/>
<path style="fill:#a0a7ad; stroke:none;" d="M106 52L107 53L106 52M100 54L100 58L101 58L100 54M95 58L96 59L95 58M102 58L103 59L102 58M92 59L93 60L92 59M105 59L106 60L105 59M90 60L91 61L90 60M109 61L110 62L109 61M87 62L88 63L87 62M110 62L111 63L110 62M86 63L87 64L86 63M85 64L86 65L85 64M112 64L113 65L112 64M113 65L114 66L113 65M83 67L84 68L83 67M115 69L116 70L115 69M82 70L83 71L82 70M116.333 72.6667L116.667 73.3333L116.333 72.6667M80.6667 74.3333L81.3333 74.6667L80.6667 74.3333M117.667 74.3333L118.333 74.6667L117.667 74.3333M79 75L79 78L80 78L79 75M80 78L80 79L84 79L80 78M89 78L89 79L92 79L92 99L93 99C93 93.1363 95.6796 80.2169 89 78M97 78L97 79L102 79L97 78M107 78L107 79L111 79L107 78M116 78L116 79L119 79L116 78z"/>
<path style="fill:#fffefe; stroke:none;" d="M89 79L89 99L92 99L92 79L89 79M97 79C97 85.1567 94.1646 97.6924 102 99L102 79L97 79M107 79L107 99L111 99L111 79L107 79z"/>
<path style="fill:#a0a7ad; stroke:none;" d="M97 98L98 99L97 98M78 101L79 102L78 101M121 101L122 102L121 101M78 105L78 106L122 106C110.537 101.19 90.4804 105 78 105M19 109L20 110L19 109z"/>
<path style="fill:#da3232; stroke:none;" d="M19 110L19 111L181 111C172.857 104.831 150.161 109 140 109L59 109C46.5814 109 30.9174 106.477 19 110z"/>
<path style="fill:#a0a7ad; stroke:none;" d="M180 109L181 110L180 109M20 112L20 113L180 113C167.593 107.794 145.515 112 132 112L20 112z"/>
<path style="fill:#434951; stroke:none;" d="M19 113L19 115L181 115L181 113L19 113z"/>
<path style="fill:#a0a7ad; stroke:none;" d="M19 115L19 116L181 116C168.593 110.794 146.515 115 133 115L19 115M134.667 118.333L135.333 118.667L134.667 118.333z"/>
<path style="fill:#434951; stroke:none;" d="M44 119L41 141L44 141L44 137L52 141C51.2073 134.76 51.3362 120.274 44 119z"/>
<path style="fill:#a0a7ad; stroke:none;" d="M48.3333 119.667L48.6667 120.333L48.3333 119.667M54 119L54 137L55 137L54 119z"/>
<path style="fill:#434951; stroke:none;" d="M55 119C55 123.863 52.2687 141.133 59.9753 141.133C67.6468 141.133 65 123.793 65 119L62 119C62 125.276 64.2722 135.541 58 139L58 119L55 119z"/>
<path style="fill:#a0a7ad; stroke:none;" d="M65 119L65 136L66 136L65 119z"/>
<path style="fill:#434951; stroke:none;" d="M69 119L69 141C84.2789 140.946 84.1205 119.137 69 119z"/>
<path style="fill:#a0a7ad; stroke:none;" d="M76 119L77 120L76 119z"/>
<path style="fill:#434951; stroke:none;" d="M83 119L83 141L86 141L86 119L83 119z"/>
<path style="fill:#a0a7ad; stroke:none;" d="M86 119C86 124.958 88.4766 137.449 83 141L83 142L87 142L86 119M88 119L92 122L92 142L96 142L96 141L93 141C93 133.137 95.2195 123.94 88 119z"/>
<path style="fill:#434951; stroke:none;" d="M89 119C93.5847 126.269 93 132.45 93 141L96 141L99 119L89 119z"/>
<path style="fill:#a0a7ad; stroke:none;" d="M99 119L96 121L96 122C98.348 121.706 99.951 121.507 99 119z"/>
<path style="fill:#434951; stroke:none;" d="M115 119L115 141L118 141L118 131L123 131L123 141L126 141L126 119L123 119L123 128L118 128L118 119L115 119z"/>
<path style="fill:#a0a7ad; stroke:none;" d="M118 119L118 128L119 128L118 119M122 119L122 128L123 128L122 119M131 119L130 121L131 119z"/>
<path style="fill:#434951; stroke:none;" d="M139 134L136 139L133 139C133 133.03 131.455 125.451 136 121L136 126L139 126C138.055 113.611 128.833 122.411 129.015 131C129.209 140.105 138.619 145.615 139 134z"/>
<path style="fill:#a0a7ad; stroke:none;" d="M137 119L138 120L137 119z"/>
<path style="fill:#434951; stroke:none;" d="M142 119L142 141L145 141L145 124L146 124C146.386 128.73 146.786 135.299 151 138L154 124L155 124L154 141L157 141L157 119L153 119L150 132L149 132L147 119L142 119z"/>
<path style="fill:#a0a7ad; stroke:none;" d="M157 119C157 124.958 159.477 137.449 154 141L154 142L158 142L157 119M138 120L139 121L138 120M152.333 120.667L152.667 121.333L152.333 120.667M73 121L72 139L73 139L75 122L73 121M134.667 121.333L135.333 121.667L134.667 121.333M147.333 121.667L147.667 122.333L147.333 121.667M43.3333 122.667L43.6667 123.333L43.3333 122.667z"/>
<path style="fill:#fffefe; stroke:none;" d="M73 122L73 139C77.8599 135.849 76 127.231 76 122L73 122z"/>
<path style="fill:#a0a7ad; stroke:none;" d="M79.3333 122.667L79.6667 123.333L79.3333 122.667M129.333 122.667L129.667 123.333L129.333 122.667M139 122L139 126L140 126L139 122M46 124L45 131L46 131L46 124M49 124L49 127L50 127L49 124M76 124L76 136L77 136L76 124M145 124C145 129.231 146.86 137.849 142 141L142 142L146 142L145 124M151.333 124.667L151.667 125.333L151.333 124.667M154 124L153 129L154 129L154 124M148.333 125.667L148.667 126.333L148.333 125.667M137.667 126.333L138.333 126.667L137.667 126.333M42 127L42 130L43 130L42 127z"/>
<path style="fill:#fffefe; stroke:none;" d="M46 127L45 134L46 127z"/>
<path style="fill:#a0a7ad; stroke:none;" d="M150 128L149 132L150 132L150 128M50 129L50 132L51 132L50 129M101 133L112 133C110.22 127.636 102.78 127.636 101 133M47 130L45 134L45 135C48.0124 134.354 48.498 132.613 47 130z"/>
<path style="fill:#434951; stroke:none;" d="M102 130L102 132L111 132L111 130L102 130z"/>
<path style="fill:#a0a7ad; stroke:none;" d="M118 131C117.997 134.987 118.598 138.668 115 141L115 142L119 142L118 131M122 131L122 142L126 142L126 141L123 141L122 131M152.333 131.667L152.667 132.333L152.333 131.667M41 132L41 135L42 135L41 132M147 132L147 135L148 135L147 132M136 134L137 135L136 134M139 134L139 139L140 139L139 134M51 135L51 138L52 138L51 135M151.333 135.667L151.667 136.333L151.333 135.667M61.3333 136.667L61.6667 137.333L61.3333 136.667M129.333 136.667L129.667 137.333L129.333 136.667M44 137L44 138L48 138L44 137M79 137L80 138L79 137M148 137L149 138L148 137M40 138L40 142L44 142L44 141L40 138M48 138L48 141L49 141L48 138M58 138L59 139L58 138M64.3333 138.667L64.6667 139.333L64.3333 138.667M75 138L76 139L75 138M133 138L134 139L133 138M149.667 138.333L150.333 138.667L149.667 138.333M55 139L56 140L55 139M78 139L79 140L78 139M130 139L131 140L130 139M52 140L53 141L52 140M56 140L57 141L56 140M63 140L64 141L63 140M77 140L78 141L77 140M49 141L49 142L52 142L49 141M57.6667 141.333L58.3333 141.667L57.6667 141.333M61 141L62 142L61 141M69 141L69 142L76 142L69 141M132.667 141.333L133.333 141.667L132.667 141.333M135.667 141.333L136.333 141.667L135.667 141.333M19 145L19 146L181 146C168.593 140.794 146.515 145 133 145L19 145z"/>
<path style="fill:#434951; stroke:none;" d="M19 146L19 148L181 148L181 146L19 146z"/>
<path style="fill:#da3232; stroke:none;" d="M19 150L19 151C30.0804 154.275 44.4593 152 56 152L131 152C146.341 152 166.297 155.346 181 151C168.593 145.794 146.515 150 133 150L19 150z"/>
<path style="fill:#a0a7ad; stroke:none;" d="M19 151L20 152L19 151M180 151L181 152L180 151z"/>
</svg>
