<?xml version="1.0" standalone="yes"?>
<svg xmlns="http://www.w3.org/2000/svg" width="261" height="89">
<path style="fill:#fffdfd; stroke:none;" d="M0 0L0 89L261 89L261 0L0 0z"/>
<path style="fill:#eeadac; stroke:none;" d="M10.6667 3.33334L11.3333 3.66666L10.6667 3.33334z"/>
<path style="fill:#d57a79; stroke:none;" d="M12 3L13 4L12 3z"/>
<path style="fill:#b34d4d; stroke:none;" d="M13.6667 3.33334L14.3333 3.66666L13.6667 3.33334z"/>
<path style="fill:#d57a79; stroke:none;" d="M15.6667 3.33334L16.3333 3.66666L15.6667 3.33334z"/>
<path style="fill:#eeadac; stroke:none;" d="M17.6667 3.33334L18.3333 3.66666L17.6667 3.33334M52.6667 3.33334L53.3333 3.66666L52.6667 3.33334z"/>
<path style="fill:#d57a79; stroke:none;" d="M54 3L55 4L54 3z"/>
<path style="fill:#b34d4d; stroke:none;" d="M55 3L55 4L58 4L55 3z"/>
<path style="fill:#d57a79; stroke:none;" d="M58 3L59 4L58 3z"/>
<path style="fill:#eeadac; stroke:none;" d="M59.6667 3.33334L60.3333 3.66666L59.6667 3.33334M8 4L5 8L8 4z"/>
<path style="fill:#d57a79; stroke:none;" d="M9 4L10 5L9 4z"/>
<path style="fill:#ce3130; stroke:none;" d="M10.1049 4.85802C1.09862 8.89012 6.4012 17.4163 9.07716 23.2855C11.5847 28.7853 10.8809 34.5549 14.3881 40C19.1275 47.3582 27.0805 52.3917 29.8873 60.9992C32.1394 67.9054 24.2833 71.9863 26.2022 78.9846C27.6524 84.2737 33.7877 87.2821 38.9568 85.2539C51.5152 80.3261 38.6415 68.6461 40.8048 61C43.0854 52.9391 50.9746 47.7541 55.4769 41C59.3644 35.1682 59.254 29.0657 61.9799 23C64.6801 16.9916 69.0897 9.64708 60.9059 5.17901C55.319 2.12879 48.184 5.80096 47.2438 12.0008C46.4378 17.3157 50.9615 20.1799 51.5008 25C52.2279 31.4987 46.0497 37.7788 42.0355 41.9992C40.3427 43.779 37.8059 47.7858 34.9252 47.3688C28.666 46.4627 18.2527 31.265 19.3565 25C20.0602 21.0059 23.5772 18.2428 23.6258 14C23.7064 6.95744 16.6993 1.90574 10.1049 4.85802z"/>
<path style="fill:#b34d4d; stroke:none;" d="M18 4L19 5L18 4z"/>
<path style="fill:#d57a79; stroke:none;" d="M19 4L20 5L19 4M51 4L52 5L51 4z"/>
<path style="fill:#b34d4d; stroke:none;" d="M52 4L53 5L52 4M60 4L61 5L60 4z"/>
<path style="fill:#d57a79; stroke:none;" d="M61 4L62 5L61 4z"/>
<path style="fill:#eeadac; stroke:none;" d="M62 4L65 7L62 4z"/>
<path style="fill:#b34d4d; stroke:none;" d="M8 5L9 6L8 5M20 5L22 7L20 5z"/>
<path style="fill:#eeadac; stroke:none;" d="M21 5L22 6L21 5M49 5L47 8L49 5z"/>
<path style="fill:#b34d4d; stroke:none;" d="M50 5L51 6L50 5M62 5L63 6L62 5M49 6L50 7L49 6M63 6L64 7L63 6M6 7L7 8L6 7M11 7L12 8L11 7z"/>
<path style="fill:#d57a79; stroke:none;" d="M12 7L13 8L12 7z"/>
<path style="fill:#eeadac; stroke:none;" d="M13 7L13 8L16 8L13 7z"/>
<path style="fill:#d57a79; stroke:none;" d="M16 7L17 8L16 7M22 7L23 8L22 7M48 7L49 8L48 7z"/>
<path style="fill:#b34d4d; stroke:none;" d="M53 7L54 8L53 7z"/>
<path style="fill:#d57a79; stroke:none;" d="M54 7L55 8L54 7z"/>
<path style="fill:#eeadac; stroke:none;" d="M55 7L55 8L58 8L55 7z"/>
<path style="fill:#d57a79; stroke:none;" d="M58 7L59 8L58 7z"/>
<path style="fill:#b34d4d; stroke:none;" d="M59 7L60 8L59 7M64 7L66 10L64 7z"/>
<path style="fill:#d57a79; stroke:none;" d="M5 8L6 9L5 8z"/>
<path style="fill:#b34d4d; stroke:none;" d="M9 8L8 10L9 8z"/>
<path style="fill:#d57a79; stroke:none;" d="M10 8L11 9L10 8z"/>
<path style="fill:#fffdfd; stroke:none;" d="M11.2824 9.0324C5.59502 12.54 10.9692 21.336 16.8519 17.9676C23.039 14.4248 17.0433 5.47948 11.2824 9.0324z"/>
<path style="fill:#eeadac; stroke:none;" d="M17 8L20 11L17 8z"/>
<path style="fill:#b34d4d; stroke:none;" d="M18 8L19 9L18 8M22 8L23 12L24 12L22 8z"/>
<path style="fill:#eeadac; stroke:none;" d="M23 8L24 9L23 8z"/>
<path style="fill:#d57a79; stroke:none;" d="M47 8L48 9L47 8M52 8L51 10L52 8z"/>
<path style="fill:#eeadac; stroke:none;" d="M53 8L54 9L53 8z"/>
<path style="fill:#fffdfd; stroke:none;" d="M54.2276 8.75772C48.0885 11.4083 52.5256 20.9758 58.7724 18.3812C64.9119 15.8311 60.602 6.00557 54.2276 8.75772z"/>
<path style="fill:#eeadac; stroke:none;" d="M59 8L60 9L59 8z"/>
<path style="fill:#d57a79; stroke:none;" d="M60 8L61 9L60 8M65 8L66 9L65 8z"/>
<path style="fill:#eeadac; stroke:none;" d="M4 9L5 10L4 9z"/>
<path style="fill:#b34d4d; stroke:none;" d="M5 9L6 10L5 9z"/>
<path style="fill:#eeadac; stroke:none;" d="M9 9L10 10L9 9z"/>
<path style="fill:#d57a79; stroke:none;" d="M19 9L20 10L19 9z"/>
<path style="fill:#eeadac; stroke:none;" d="M46.3333 9.66666L46.6667 10.3333L46.3333 9.66666z"/>
<path style="fill:#b34d4d; stroke:none;" d="M47 9L48 10L47 9z"/>
<path style="fill:#d57a79; stroke:none;" d="M61 9L62 10L61 9z"/>
<path style="fill:#eeadac; stroke:none;" d="M66 9L67 10L66 9z"/>
<path style="fill:#d57a79; stroke:none;" d="M4.33333 10.6667L4.66667 11.3333L4.33333 10.6667M8 10L9 11L8 10z"/>
<path style="fill:#b34d4d; stroke:none;" d="M20 10L21 11L20 10z"/>
<path style="fill:#eeadac; stroke:none;" d="M24.3333 10.6667L24.6667 11.3333L24.3333 10.6667z"/>
<path style="fill:#b34d4d; stroke:none;" d="M50 10L51 11L50 10z"/>
<path style="fill:#eeadac; stroke:none;" d="M51 10L52 11L51 10M61 10L62 11L61 10z"/>
<path style="fill:#b34d4d; stroke:none;" d="M62 10L63 11L62 10z"/>
<path style="fill:#d57a79; stroke:none;" d="M66 10L67 11L66 10z"/>
<path style="fill:#b34d4d; stroke:none;" d="M7 11L7 16L8 16L7 11z"/>
<path style="fill:#eeadac; stroke:none;" d="M8.33333 11.6667L8.66667 12.3333L8.33333 11.6667z"/>
<path style="fill:#d57a79; stroke:none;" d="M20 11L21 12L20 11M46.3333 11.6667L46.6667 12.3333L46.3333 11.6667M50 11L51 12L50 11M62 11L63 12L62 11z"/>
<path style="fill:#b34d4d; stroke:none;" d="M66 11L61 23C65.0341 19.9937 68.076 16.1037 66 11M4 12L5 13L4 12z"/>
<path style="fill:#eeadac; stroke:none;" d="M20 12L20 15L21 15L20 12z"/>
<path style="fill:#d57a79; stroke:none;" d="M24 12L24 16L25 16L24 12z"/>
<path style="fill:#b34d4d; stroke:none;" d="M49.3333 12.6667L49.6667 13.3333L49.3333 12.6667z"/>
<path style="fill:#eeadac; stroke:none;" d="M50 12L50 15L51 15L50 12M62 12L62 15L63 15L62 12M45.3333 13.6667L45.6667 14.3333L45.3333 13.6667z"/>
<path style="fill:#b34d4d; stroke:none;" d="M46 13L47 14L46 13M4 14L5 15L4 14z"/>
<path style="fill:#eeadac; stroke:none;" d="M8.33333 14.6667L8.66667 15.3333L8.33333 14.6667z"/>
<path style="fill:#d57a79; stroke:none;" d="M46 14L46 17L47 17L46 14M4.33333 15.6667L4.66667 16.3333L4.33333 15.6667M20 15L21 16L20 15M50 15L51 16L50 15M62 15L63 16L62 15M8 16L10 18L8 16z"/>
<path style="fill:#eeadac; stroke:none;" d="M19 16L17 19L19 16z"/>
<path style="fill:#b34d4d; stroke:none;" d="M20 16L21 17L20 16M23.3333 16.6667L23.6667 17.3333L23.3333 16.6667z"/>
<path style="fill:#eeadac; stroke:none;" d="M24.3333 16.6667L24.6667 17.3333L24.3333 16.6667z"/>
<path style="fill:#b34d4d; stroke:none;" d="M50 16L51 17L50 16z"/>
<path style="fill:#eeadac; stroke:none;" d="M51 16L52 17L51 16M61 16L62 17L61 16z"/>
<path style="fill:#b34d4d; stroke:none;" d="M62 16L63 17L62 16z"/>
<path style="fill:#eeadac; stroke:none;" d="M121 17L121 18L127 17L121 17M137 37L138 37L138 17L142 17C134.382 14.5037 137 32.509 137 37M150 35L151 35L151 17L155 17C147.536 14.554 150 30.6527 150 35M160 16L160 17L174 17L160 16M182 39L183 39L183 17L187 17L187 39C188.279 35.9531 189.958 14.9173 184.259 16.7515C179.734 18.208 182 35.0315 182 39M190 17L190 18L207 17L207 20C198.121 20.6918 201 32.3101 201 39L202 39L202 21C204.67 20.7921 210.304 17.9286 204.847 16.3171C200.534 15.0434 194.211 15.7554 190 17M4 17L6 20L4 17z"/>
<path style="fill:#b34d4d; stroke:none;" d="M5 17L6 18L5 17M8 17L9 18L8 17M19 17L20 18L19 17z"/>
<path style="fill:#eeadac; stroke:none;" d="M46 17L47 18L46 17z"/>
<path style="fill:#b34d4d; stroke:none;" d="M47 17L48 18L47 17z"/>
<path style="fill:#d57a79; stroke:none;" d="M51 17L52 18L51 17M61 17L62 18L61 17z"/>
<path style="fill:#eeadac; stroke:none;" d="M66 17L67 18L66 17z"/>
<path style="fill:#b34d4d; stroke:none;" d="M122 17L123 18L122 17z"/>
<path style="fill:#ce3130; stroke:none;" d="M123 17L116 38C123.42 33.6226 125.35 34.2006 133 38C131.576 31.1877 129.527 20.4144 123 17z"/>
<path style="fill:#b34d4d; stroke:none;" d="M125 17L127 19L125 17z"/>
<path style="fill:#d57a79; stroke:none;" d="M126 17L127 18L126 17z"/>
<path style="fill:#b34d4d; stroke:none;" d="M138 17L139 18L138 17z"/>
<path style="fill:#ce3130; stroke:none;" d="M139 17C137.642 21.5952 136.4 31.2043 138.603 35.6821C140.284 39.0968 150.72 39.2397 152.972 36.3966C155.907 32.6917 154 22.557 154 18C148.323 21.6807 153.289 28.745 149.972 33.6813C147.918 36.7388 143.055 35.9895 141.603 32.7716C139.694 28.5382 141 21.5823 141 17L139 17z"/>
<path style="fill:#b34d4d; stroke:none;" d="M141 17L141 35L142 35L141 17M151 19L154 18L153 38L154 38L155 17L151 19z"/>
<path style="fill:#d57a79; stroke:none;" d="M160 17L160 39L161 39L160 17z"/>
<path style="fill:#b34d4d; stroke:none;" d="M161 17L162 18L161 17z"/>
<path style="fill:#ce3130; stroke:none;" d="M161 38C164.87 38 171.325 39.2124 174.682 36.9722C184.936 30.13 170.789 7.54145 162.028 18.6034C158.978 22.4538 161 33.2503 161 38z"/>
<path style="fill:#b34d4d; stroke:none;" d="M172 17L172 18L175 18L172 17z"/>
<path style="fill:#eeadac; stroke:none;" d="M175 17L176 18L175 17z"/>
<path style="fill:#b34d4d; stroke:none;" d="M183 19L186 18L186 38L183 37L187 39L187 17L183 19M191 17L191 20L193 20L193 17L191 17z"/>
<path style="fill:#ce3130; stroke:none;" d="M192 18L192 19C199.94 22.6918 198 30.364 198 38L201 37L201 20L207 19C202.895 16.2052 196.635 16.6444 192 18z"/>
<path style="fill:#b34d4d; stroke:none;" d="M199 17L200 18L199 17M205.667 17.3333L206.333 17.6667L205.667 17.3333z"/>
<path style="fill:#d57a79; stroke:none;" d="M5 18L6 19L5 18z"/>
<path style="fill:#b34d4d; stroke:none;" d="M9 18L12 20L12 19L9 18z"/>
<path style="fill:#eeadac; stroke:none;" d="M10 18L11 19L10 18z"/>
<path style="fill:#d57a79; stroke:none;" d="M18 18L19 19L18 18M23 18L24 19L23 18M47 18L48 19L47 18M52 18L53 19L52 18z"/>
<path style="fill:#eeadac; stroke:none;" d="M53 18L54 19L53 18z"/>
<path style="fill:#d57a79; stroke:none;" d="M60 18L61 19L60 18M121 18L122 19L121 18z"/>
<path style="fill:#eeadac; stroke:none;" d="M127 18L128 19L127 18z"/>
<path style="fill:#b34d4d; stroke:none;" d="M176 18L177 19L176 18z"/>
<path style="fill:#eeadac; stroke:none;" d="M177 18L178 19L177 18z"/>
<path style="fill:#ce3130; stroke:none;" d="M184 18C182.453 22.7518 181.013 35.3933 186 38L186 18L184 18z"/>
<path style="fill:#b34d4d; stroke:none;" d="M6 19L7 20L6 19z"/>
<path style="fill:#d57a79; stroke:none;" d="M12 19L13 20L12 19z"/>
<path style="fill:#eeadac; stroke:none;" d="M13.6667 19.3333L14.3333 19.6667L13.6667 19.3333z"/>
<path style="fill:#d57a79; stroke:none;" d="M15.6667 19.3333L16.3333 19.6667L15.6667 19.3333z"/>
<path style="fill:#b34d4d; stroke:none;" d="M17 19L18 20L17 19M22 19L20 22L22 19z"/>
<path style="fill:#eeadac; stroke:none;" d="M23 19L24 20L23 19M47 19L51 23L47 19z"/>
<path style="fill:#b34d4d; stroke:none;" d="M48 19L49 20L48 19M53 19L54 20L53 19z"/>
<path style="fill:#d57a79; stroke:none;" d="M54 19L55 20L54 19z"/>
<path style="fill:#eeadac; stroke:none;" d="M55 19L55 20L58 20L55 19z"/>
<path style="fill:#d57a79; stroke:none;" d="M58 19L59 20L58 19z"/>
<path style="fill:#b34d4d; stroke:none;" d="M59 19L60 20L59 19z"/>
<path style="fill:#eeadac; stroke:none;" d="M65 19L66 20L65 19z"/>
<path style="fill:#b34d4d; stroke:none;" d="M121.333 19.6667L121.667 20.3333L121.333 19.6667z"/>
<path style="fill:#d57a79; stroke:none;" d="M127 19L128 20L127 19M177 19L177 37L178 37L177 19z"/>
<path style="fill:#eeadac; stroke:none;" d="M190 19L191 20L190 19z"/>
<path style="fill:#b34d4d; stroke:none;" d="M206 19L207 20L206 19z"/>
<path style="fill:#d57a79; stroke:none;" d="M6 20L7 21L6 20z"/>
<path style="fill:#eeadac; stroke:none;" d="M22 20L23 21L22 20z"/>
<path style="fill:#b34d4d; stroke:none;" d="M49 20L50 21L49 20z"/>
<path style="fill:#eeadac; stroke:none;" d="M64 20L65 21L64 20M120 20L121 21L120 20z"/>
<path style="fill:#b34d4d; stroke:none;" d="M127 20L128 21L127 20z"/>
<path style="fill:#d57a79; stroke:none;" d="M164 20L164 35L165 35L164 20z"/>
<path style="fill:#eeadac; stroke:none;" d="M165 20L165 21L173 21L165 20z"/>
<path style="fill:#b34d4d; stroke:none;" d="M173 20L174 21L173 20z"/>
<path style="fill:#eeadac; stroke:none;" d="M191 20L191 21L196 21L196 39L197 39L197 20L191 20z"/>
<path style="fill:#d57a79; stroke:none;" d="M201 20L202 21L201 20M7 21L8 22L7 21z"/>
<path style="fill:#eeadac; stroke:none;" d="M21 21L22 22L21 21z"/>
<path style="fill:#b34d4d; stroke:none;" d="M50 21L51 22L50 21z"/>
<path style="fill:#eeadac; stroke:none;" d="M63 21L64 22L63 21z"/>
<path style="fill:#d57a79; stroke:none;" d="M120 21L121 22L120 21z"/>
<path style="fill:#eeadac; stroke:none;" d="M128 21L129 22L128 21z"/>
<path style="fill:#fffdfd; stroke:none;" d="M165 21L165 35L173 35L173 21L165 21z"/>
<path style="fill:#d57a79; stroke:none;" d="M173 21L173 35L174 35L173 21z"/>
<path style="fill:#b34d4d; stroke:none;" d="M197 21L197 39L201 37L198 38L197 21z"/>
<path style="fill:#eeadac; stroke:none;" d="M8 22L8 26L9 26L8 22z"/>
<path style="fill:#b34d4d; stroke:none;" d="M9 22L9 25L10 25L9 22z"/>
<path style="fill:#d57a79; stroke:none;" d="M19 22L19 28L20 28L19 22z"/>
<path style="fill:#b34d4d; stroke:none;" d="M51 22L52 23L51 22z"/>
<path style="fill:#eeadac; stroke:none;" d="M62 22L63 23L62 22M119.333 22.6667L119.667 23.3333L119.333 22.6667z"/>
<path style="fill:#b34d4d; stroke:none;" d="M120 22L121 23L120 22M124 22L126 24L124 22z"/>
<path style="fill:#d57a79; stroke:none;" d="M128 22L129 23L128 22M51 23L51 26L52 26L51 23M61 23L61 29L62 29L61 23M123 23L124 24L123 23z"/>
<path style="fill:#eeadac; stroke:none;" d="M124 23L123 26L124 26L124 23z"/>
<path style="fill:#b34d4d; stroke:none;" d="M128 23L129 24L128 23M200 23L201 24L200 23z"/>
<path style="fill:#d57a79; stroke:none;" d="M119 24L120 25L119 24z"/>
<path style="fill:#fffdfd; stroke:none;" d="M124 24L122 30L126 30L124 24z"/>
<path style="fill:#d57a79; stroke:none;" d="M125 24L126 25L125 24z"/>
<path style="fill:#eeadac; stroke:none;" d="M129 24L130 25L129 24z"/>
<path style="fill:#d57a79; stroke:none;" d="M9 25L9 29L10 29L9 25z"/>
<path style="fill:#eeadac; stroke:none;" d="M50 25L48 34L49 34L50 25M118.333 25.6667L118.667 26.3333L118.333 25.6667z"/>
<path style="fill:#b34d4d; stroke:none;" d="M119 25L120 26L119 25M122 25L123 26L122 25z"/>
<path style="fill:#eeadac; stroke:none;" d="M125.333 25.6667L125.667 26.3333L125.333 25.6667z"/>
<path style="fill:#d57a79; stroke:none;" d="M129 25L130 26L129 25z"/>
<path style="fill:#b34d4d; stroke:none;" d="M51.3333 26.6667L51.6667 27.3333L51.3333 26.6667z"/>
<path style="fill:#d57a79; stroke:none;" d="M122 26L123 27L122 26z"/>
<path style="fill:#b34d4d; stroke:none;" d="M126 26L127 27L126 26M129 26L130 27L129 26M200 26L201 27L200 26z"/>
<path style="fill:#d57a79; stroke:none;" d="M118 27L119 28L118 27z"/>
<path style="fill:#eeadac; stroke:none;" d="M122 27L123 28L122 27z"/>
<path style="fill:#d57a79; stroke:none;" d="M126 27L127 28L126 27z"/>
<path style="fill:#eeadac; stroke:none;" d="M130 27L131 28L130 27z"/>
<path style="fill:#b34d4d; stroke:none;" d="M19.3333 28.6667L19.6667 29.3333L19.3333 28.6667z"/>
<path style="fill:#eeadac; stroke:none;" d="M20.3333 28.6667L20.6667 29.3333L20.3333 28.6667M117 28L118 29L117 28z"/>
<path style="fill:#b34d4d; stroke:none;" d="M121 28L122 29L121 28z"/>
<path style="fill:#eeadac; stroke:none;" d="M126.333 28.6667L126.667 29.3333L126.333 28.6667z"/>
<path style="fill:#d57a79; stroke:none;" d="M130 28L131 29L130 28z"/>
<path style="fill:#eeadac; stroke:none;" d="M9 29L10 35L11 35L9 29z"/>
<path style="fill:#b34d4d; stroke:none;" d="M60.3333 29.6667L60.6667 30.3333L60.3333 29.6667z"/>
<path style="fill:#eeadac; stroke:none;" d="M61.3333 29.6667L61.6667 30.3333L61.3333 29.6667z"/>
<path style="fill:#d57a79; stroke:none;" d="M117 29L118 30L117 29M121 29L121 30L127 31L127 30L121 29z"/>
<path style="fill:#b34d4d; stroke:none;" d="M130 29L131 30L130 29z"/>
<path style="fill:#eeadac; stroke:none;" d="M131.333 29.6667L131.667 30.3333L131.333 29.6667z"/>
<path style="fill:#d57a79; stroke:none;" d="M20 30L21 31L20 30M50 30L51 31L50 30z"/>
<path style="fill:#b34d4d; stroke:none;" d="M117.333 30.6667L117.667 31.3333L117.333 30.6667M121 30L122 31L121 30M183.333 30.6667L183.667 31.3333L183.333 30.6667M200 30L200 36L201 36L200 30M10 31L11 32L10 31M20 31L21 32L20 31z"/>
<path style="fill:#eeadac; stroke:none;" d="M21 31L22 32L21 31z"/>
<path style="fill:#d57a79; stroke:none;" d="M60.3333 31.6667L60.6667 32.3333L60.3333 31.6667z"/>
<path style="fill:#eeadac; stroke:none;" d="M116 31L117 32L116 31z"/>
<path style="fill:#d57a79; stroke:none;" d="M131 31L132 32L131 31M10 32L11 33L10 32M21 32L22 33L21 32M49 32L50 33L49 32M116 32L117 33L116 32z"/>
<path style="fill:#eeadac; stroke:none;" d="M132.333 32.6667L132.667 33.3333L132.333 32.6667z"/>
<path style="fill:#b34d4d; stroke:none;" d="M21 33L22 34L21 33z"/>
<path style="fill:#eeadac; stroke:none;" d="M22 33L23 34L22 33z"/>
<path style="fill:#b34d4d; stroke:none;" d="M59.3333 33.6667L59.6667 34.3333L59.3333 33.6667z"/>
<path style="fill:#eeadac; stroke:none;" d="M60.3333 33.6667L60.6667 34.3333L60.3333 33.6667z"/>
<path style="fill:#b34d4d; stroke:none;" d="M116 33L117 34L116 33M11 34L12 35L11 34z"/>
<path style="fill:#d57a79; stroke:none;" d="M22 34L23 35L22 34M48 34L49 35L48 34z"/>
<path style="fill:#eeadac; stroke:none;" d="M115 34L116 35L115 34z"/>
<path style="fill:#b34d4d; stroke:none;" d="M119 34L120 35L119 34z"/>
<path style="fill:#eeadac; stroke:none;" d="M128 34L129 35L128 34z"/>
<path style="fill:#b34d4d; stroke:none;" d="M132.333 34.6667L132.667 35.3333L132.333 34.6667M183 34L184 35L183 34z"/>
<path style="fill:#d57a79; stroke:none;" d="M11 35L12 36L11 35z"/>
<path style="fill:#b34d4d; stroke:none;" d="M22 35L28 41L22 35z"/>
<path style="fill:#eeadac; stroke:none;" d="M23 35L24 36L23 35z"/>
<path style="fill:#d57a79; stroke:none;" d="M47 35L48 36L47 35M59 35L60 36L59 35M115 35L116 36L115 35M119 35L120 36L119 35z"/>
<path style="fill:#b34d4d; stroke:none;" d="M129 35L130 36L129 35z"/>
<path style="fill:#eeadac; stroke:none;" d="M133 35L134 36L133 35z"/>
<path style="fill:#b34d4d; stroke:none;" d="M143 35L143 36L150 36L143 35M164 35L164 36L173 36L164 35z"/>
<path style="fill:#eeadac; stroke:none;" d="M11 36L12 37L11 36M24 36L25 37L24 36M46 36L42 41L46 36z"/>
<path style="fill:#b34d4d; stroke:none;" d="M47 36L48 37L47 36M58 36L56 40L57 40L58 36z"/>
<path style="fill:#eeadac; stroke:none;" d="M59 36L60 37L59 36M114.333 36.6667L114.667 37.3333L114.333 36.6667z"/>
<path style="fill:#b34d4d; stroke:none;" d="M115 36C115.75 39.4831 117.722 38.8984 119 36L118 36L115 36z"/>
<path style="fill:#eeadac; stroke:none;" d="M119 36L120 37L119 36z"/>
<path style="fill:#d57a79; stroke:none;" d="M129 36L130 37L129 36M133 36L134 37L133 36z"/>
<path style="fill:#b34d4d; stroke:none;" d="M176 36L175 38L176 36z"/>
<path style="fill:#d57a79; stroke:none;" d="M12 37L13 38L12 37z"/>
<path style="fill:#eeadac; stroke:none;" d="M25 37L26 38L25 37z"/>
<path style="fill:#b34d4d; stroke:none;" d="M46 37L47 38L46 37z"/>
<path style="fill:#d57a79; stroke:none;" d="M58 37L59 38L58 37z"/>
<path style="fill:#eeadac; stroke:none;" d="M129 37L130 38L129 37z"/>
<path style="fill:#b34d4d; stroke:none;" d="M130 37C131.556 38.8129 132.444 38.8129 134 37L130 37z"/>
<path style="fill:#d57a79; stroke:none;" d="M138 37L139 38L138 37z"/>
<path style="fill:#eeadac; stroke:none;" d="M154 37L155 38L154 37M176 37L177 38L176 37M12 38L14 40L12 38z"/>
<path style="fill:#b34d4d; stroke:none;" d="M13 38L14 39L13 38z"/>
<path style="fill:#eeadac; stroke:none;" d="M26 38L27 39L26 38z"/>
<path style="fill:#b34d4d; stroke:none;" d="M45 38L46 39L45 38z"/>
<path style="fill:#eeadac; stroke:none;" d="M58 38L59 39L58 38z"/>
<path style="fill:#d57a79; stroke:none;" d="M114 38L115 39L114 38z"/>
<path style="fill:#eeadac; stroke:none;" d="M118 38L119 39L118 38M134 38L135 39L134 38z"/>
<path style="fill:#d57a79; stroke:none;" d="M140 38L141 39L140 38z"/>
<path style="fill:#b34d4d; stroke:none;" d="M141 38L141 39L152 39L141 38z"/>
<path style="fill:#eeadac; stroke:none;" d="M152 38L153 39L152 38z"/>
<path style="fill:#b34d4d; stroke:none;" d="M161 38L161 39L174 39L161 38z"/>
<path style="fill:#d57a79; stroke:none;" d="M174 38L175 39L174 38z"/>
<path style="fill:#eeadac; stroke:none;" d="M27 39L28 40L27 39z"/>
<path style="fill:#d57a79; stroke:none;" d="M44 39L45 40L44 39z"/>
<path style="fill:#eeadac; stroke:none;" d="M57 39L58 40L57 39z"/>
<path style="fill:#d57a79; stroke:none;" d="M14 40L15 41L14 40z"/>
<path style="fill:#eeadac; stroke:none;" d="M28 40L29 41L28 40z"/>
<path style="fill:#d57a79; stroke:none;" d="M43 40L44 41L43 40M56 40L57 41L56 40z"/>
<path style="fill:#eeadac; stroke:none;" d="M14 41L16 43L14 41z"/>
<path style="fill:#b34d4d; stroke:none;" d="M15 41L16 42L15 41z"/>
<path style="fill:#d57a79; stroke:none;" d="M28 41L29 42L28 41M42 41L43 42L42 41z"/>
<path style="fill:#b34d4d; stroke:none;" d="M55 41L53 44L55 41z"/>
<path style="fill:#eeadac; stroke:none;" d="M56 41L57 42L56 41z"/>
<path style="fill:#b34d4d; stroke:none;" d="M29 42L30 43L29 42z"/>
<path style="fill:#eeadac; stroke:none;" d="M40 42L41 43L40 42z"/>
<path style="fill:#d57a79; stroke:none;" d="M41 42L42 43L41 42z"/>
<path style="fill:#eeadac; stroke:none;" d="M55 42L56 43L55 42z"/>
<path style="fill:#d57a79; stroke:none;" d="M16 43L17 44L16 43M30 43L33 46L30 43M40 43L41 44L40 43z"/>
<path style="fill:#eeadac; stroke:none;" d="M54 43L55 44L54 43z"/>
<path style="fill:#d57a79; stroke:none;" d="M17 44L18 45L17 44z"/>
<path style="fill:#b34d4d; stroke:none;" d="M30 44L31 45L30 44z"/>
<path style="fill:#eeadac; stroke:none;" d="M38 44L39 45L38 44z"/>
<path style="fill:#d57a79; stroke:none;" d="M39 44L40 45L39 44M53 44L52 46L53 44M18 45L19 46L18 45z"/>
<path style="fill:#b34d4d; stroke:none;" d="M31 45L32 46L31 45z"/>
<path style="fill:#d57a79; stroke:none;" d="M38 45L39 46L38 45z"/>
<path style="fill:#eeadac; stroke:none;" d="M53 45L54 46L53 45M18 46L26 54L18 46z"/>
<path style="fill:#b34d4d; stroke:none;" d="M19 46L20 47L19 46M32 46L35 49L32 46z"/>
<path style="fill:#eeadac; stroke:none;" d="M33 46L34 47L33 46M37 46L35 49L37 46z"/>
<path style="fill:#b34d4d; stroke:none;" d="M51 46L44 54L51 46z"/>
<path style="fill:#eeadac; stroke:none;" d="M52 46L53 47L52 46z"/>
<path style="fill:#b34d4d; stroke:none;" d="M20 47L21 48L20 47z"/>
<path style="fill:#eeadac; stroke:none;" d="M34 47L35 48L34 47z"/>
<path style="fill:#b34d4d; stroke:none;" d="M37 47L38 48L37 47z"/>
<path style="fill:#eeadac; stroke:none;" d="M51 47L52 48L51 47z"/>
<path style="fill:#b34d4d; stroke:none;" d="M21 48L22 49L21 48M36 48L37 49L36 48z"/>
<path style="fill:#eeadac; stroke:none;" d="M50 48L51 49L50 48z"/>
<path style="fill:#b34d4d; stroke:none;" d="M22 49L23 50L22 49z"/>
<path style="fill:#eeadac; stroke:none;" d="M49 49L50 50L49 49z"/>
<path style="fill:#b34d4d; stroke:none;" d="M23 50L24 51L23 50z"/>
<path style="fill:#eeadac; stroke:none;" d="M48 50L49 51L48 50z"/>
<path style="fill:#b34d4d; stroke:none;" d="M24 51L25 52L24 51z"/>
<path style="fill:#eeadac; stroke:none;" d="M47 51L48 52L47 51z"/>
<path style="fill:#b34d4d; stroke:none;" d="M25 52L26 53L25 52z"/>
<path style="fill:#eeadac; stroke:none;" d="M46 52L47 53L46 52M45 53L46 54L45 53z"/>
<path style="fill:#d57a79; stroke:none;" d="M26 54L27 55L26 54M44 54L45 55L44 54M27 55L28 56L27 55M43 55L44 56L43 55z"/>
<path style="fill:#eeadac; stroke:none;" d="M27 56L29 65L30 65L27 56z"/>
<path style="fill:#b34d4d; stroke:none;" d="M42 56L43 57L42 56z"/>
<path style="fill:#eeadac; stroke:none;" d="M43 56L44 57L43 56z"/>
<path style="fill:#d57a79; stroke:none;" d="M28 57L29 58L28 57M42 57L43 58L42 57M66 57L66 60L67 60L66 57M70 57L70 60L71 60L70 57z"/>
<path style="fill:#eeadac; stroke:none;" d="M71 57L71 64L72 64L71 57z"/>
<path style="fill:#d57a79; stroke:none;" d="M75 57L75 64L76 64L75 57M79 57L79 64L80 64L79 57z"/>
<path style="fill:#eeadac; stroke:none;" d="M83 57L83 64L84 64L83 57z"/>
<path style="fill:#b34d4d; stroke:none;" d="M84.3333 57.6667L84.6667 58.3333L84.3333 57.6667z"/>
<path style="fill:#eeadac; stroke:none;" d="M85 57L86 58L85 57z"/>
<path style="fill:#d57a79; stroke:none;" d="M89 57L90 64L91 64L89 57M96 57L95 61L100 64L98 57L96 57z"/>
<path style="fill:#eeadac; stroke:none;" d="M102 57L103 58L102 57z"/>
<path style="fill:#b34d4d; stroke:none;" d="M103.333 57.6667L103.667 58.3333L103.333 57.6667z"/>
<path style="fill:#eeadac; stroke:none;" d="M104 57L105 58L104 57M107 57L107 60L104 59L104 60L105 62L106 63L108 64L109 64L109 57L107 57z"/>
<path style="fill:#d57a79; stroke:none;" d="M117 57L117 64L118 64L117 57z"/>
<path style="fill:#b34d4d; stroke:none;" d="M118 57L118 58L121 58L118 57z"/>
<path style="fill:#eeadac; stroke:none;" d="M121 57L120 59L122 59L121 57z"/>
<path style="fill:#b34d4d; stroke:none;" d="M127 57L128 58L127 57z"/>
<path style="fill:#eeadac; stroke:none;" d="M128 57L129 58L128 57M133 57L133 64L134 64L133 57z"/>
<path style="fill:#b34d4d; stroke:none;" d="M134 57L134 58L137 58L134 57z"/>
<path style="fill:#d57a79; stroke:none;" d="M137 57L134 59L134 64L135 64L137 57z"/>
<path style="fill:#eeadac; stroke:none;" d="M141 57L141 64L142 64L141 57z"/>
<path style="fill:#d57a79; stroke:none;" d="M142 57L142 64L143 64L142 57z"/>
<path style="fill:#b34d4d; stroke:none;" d="M146 57L146 58L150 58L146 57z"/>
<path style="fill:#d57a79; stroke:none;" d="M150 57L151 58L150 57z"/>
<path style="fill:#eeadac; stroke:none;" d="M155 57L156 58L155 57z"/>
<path style="fill:#b34d4d; stroke:none;" d="M156 57L157 58L156 57z"/>
<path style="fill:#d57a79; stroke:none;" d="M162 57L162 64L163 64L162 57z"/>
<path style="fill:#eeadac; stroke:none;" d="M163 57L163 63L164 63L163 57z"/>
<path style="fill:#b34d4d; stroke:none;" d="M174.333 57.6667L174.667 58.3333L174.333 57.6667z"/>
<path style="fill:#eeadac; stroke:none;" d="M175 57L176 58L175 57M179 57L180 58L179 57z"/>
<path style="fill:#b34d4d; stroke:none;" d="M180 57L181 58L180 57M186 57L187 58L186 57z"/>
<path style="fill:#eeadac; stroke:none;" d="M187 57L188 58L187 57M192 57L192 63L193 63L192 57z"/>
<path style="fill:#b34d4d; stroke:none;" d="M193.333 57.6667L193.667 58.3333L193.333 57.6667z"/>
<path style="fill:#eeadac; stroke:none;" d="M197 57L197 60L194 59L194 60L195 62L196 63L198 64L199 64L199 57L197 57z"/>
<path style="fill:#b34d4d; stroke:none;" d="M204 57L205 58L204 57z"/>
<path style="fill:#eeadac; stroke:none;" d="M205 57L206 58L205 57z"/>
<path style="fill:#d57a79; stroke:none;" d="M211 57L211 64L212 64L211 57z"/>
<path style="fill:#b34d4d; stroke:none;" d="M212 57L212 58L215 58L212 57z"/>
<path style="fill:#eeadac; stroke:none;" d="M215 57L214 59L216 59L215 57z"/>
<path style="fill:#d57a79; stroke:none;" d="M219 57L219 64L220 64L219 57z"/>
<path style="fill:#b34d4d; stroke:none;" d="M220 57L220 58L223 58L220 57z"/>
<path style="fill:#d57a79; stroke:none;" d="M226 57L226 64L227 64L226 57z"/>
<path style="fill:#b34d4d; stroke:none;" d="M227.333 57.6667L227.667 58.3333L227.333 57.6667M232.333 57.6667L232.667 58.3333L232.333 57.6667z"/>
<path style="fill:#eeadac; stroke:none;" d="M233 57L232 61L228 61L229 58L228 58L227 64L228 64L234 64L233 57z"/>
<path style="fill:#b34d4d; stroke:none;" d="M237 57L237 58L240 58L237 57z"/>
<path style="fill:#d57a79; stroke:none;" d="M240 57L241 58L240 57M244 57L244 64L245 64L246 57L244 57M249 57L249 62L250 62L249 57z"/>
<path style="fill:#b34d4d; stroke:none;" d="M253 57L253 58L257 58L253 57z"/>
<path style="fill:#d57a79; stroke:none;" d="M257 57L258 58L257 57z"/>
<path style="fill:#b34d4d; stroke:none;" d="M41 58L42 59L41 58z"/>
<path style="fill:#eeadac; stroke:none;" d="M42 58L43 59L42 58M74 58L74 61L75 61L74 58z"/>
<path style="fill:#d57a79; stroke:none;" d="M85 58L84 64L85 64L85 58z"/>
<path style="fill:#eeadac; stroke:none;" d="M88 58L89 62L85 60L85 61L89 63L88 58z"/>
<path style="fill:#b34d4d; stroke:none;" d="M89 58L90 59L89 58z"/>
<path style="fill:#eeadac; stroke:none;" d="M95 58L96 59L95 58z"/>
<path style="fill:#d57a79; stroke:none;" d="M104 58L105 59L104 58z"/>
<path style="fill:#eeadac; stroke:none;" d="M116 58L116 63L117 63L116 58M126 58L130 61L130 60L130 59L126 58z"/>
<path style="fill:#d57a79; stroke:none;" d="M127 58L129 60L129 58L127 58z"/>
<path style="fill:#fffdfd; stroke:none;" d="M135 58L135 60L137 60L137 58L135 58z"/>
<path style="fill:#eeadac; stroke:none;" d="M138 58L138 61L139 61L138 58M147 58L148 59L147 58z"/>
<path style="fill:#d57a79; stroke:none;" d="M148 58L148 64L149 64L148 58M155 58L155 59L155 60L157 59L157 60L154 63L158 64L159 64L155 58z"/>
<path style="fill:#eeadac; stroke:none;" d="M157 58L158 59L157 58z"/>
<path style="fill:#d57a79; stroke:none;" d="M175 58L174 64L175 64L175 58M179 58L176 61L176 62L176 63L178 63L179 60L180 60L180 64L181 64L181 58L179 58z"/>
<path style="fill:#eeadac; stroke:none;" d="M185 58L189 60L189 59L185 58z"/>
<path style="fill:#d57a79; stroke:none;" d="M186 58L188 60L188 58L186 58M194 58L195 59L194 58z"/>
<path style="fill:#eeadac; stroke:none;" d="M203 58L207 61L207 60L203 58z"/>
<path style="fill:#d57a79; stroke:none;" d="M204 58L206 60L206 58L204 58z"/>
<path style="fill:#eeadac; stroke:none;" d="M210 58L210 63L211 63L210 58M220 58L221 59L220 58M231 58L232 59L231 58M236 58L236 64L237 64L236 58z"/>
<path style="fill:#d57a79; stroke:none;" d="M237.333 58.6667L237.667 59.3333L237.333 58.6667z"/>
<path style="fill:#b34d4d; stroke:none;" d="M245 58L246 59L245 58z"/>
<path style="fill:#eeadac; stroke:none;" d="M246 58L245 64L246 64L246 58M254 58L254 63L255 63L254 58z"/>
<path style="fill:#d57a79; stroke:none;" d="M255 58L255 64L256 64L255 58M29 59L30 60L29 59M41.3333 59.6667L41.6667 60.3333L41.3333 59.6667z"/>
<path style="fill:#eeadac; stroke:none;" d="M96 59L98 61L96 59M98 59L99 60L98 59M102 59L103 60L102 59z"/>
<path style="fill:#d57a79; stroke:none;" d="M103 59L103 64L104 64L103 59M126 59L125 64L126 64L130 63L126 59z"/>
<path style="fill:#eeadac; stroke:none;" d="M154 59L154 60L154 61L157 60L157 59L154 59M178 59L179 60L178 59z"/>
<path style="fill:#d57a79; stroke:none;" d="M185 59L190 64L189 60L185 59M193 59L193 64L194 64L193 59M203 59L202 64L203 64L207 63L203 59M228.333 59.6667L228.667 60.3333L228.333 59.6667M231 59L231 61L233 59L231 59M246 59L247 60L246 59z"/>
<path style="fill:#b34d4d; stroke:none;" d="M66 60L66 61L71 61L66 60z"/>
<path style="fill:#d57a79; stroke:none;" d="M88.3333 60.6667L88.6667 61.3333L88.3333 60.6667z"/>
<path style="fill:#fffdfd; stroke:none;" d="M96 60L97 61L96 60z"/>
<path style="fill:#d57a79; stroke:none;" d="M105 60L106 61L105 60z"/>
<path style="fill:#fffdfd; stroke:none;" d="M127 60L128 61L127 60z"/>
<path style="fill:#b34d4d; stroke:none;" d="M134 60L135 61L134 60M137 60L138 61L137 60z"/>
<path style="fill:#eeadac; stroke:none;" d="M147 60L148 61L147 60z"/>
<path style="fill:#fffdfd; stroke:none;" d="M156 60L157 61L156 60z"/>
<path style="fill:#eeadac; stroke:none;" d="M158.333 60.6667L158.667 61.3333L158.333 60.6667M175.667 60.3333L176.333 60.6667L175.667 60.3333M179 60L180 61L179 60z"/>
<path style="fill:#fffdfd; stroke:none;" d="M186 60L187 61L186 60z"/>
<path style="fill:#d57a79; stroke:none;" d="M195 60L196 61L195 60z"/>
<path style="fill:#eeadac; stroke:none;" d="M202.333 60.6667L202.667 61.3333L202.333 60.6667z"/>
<path style="fill:#fffdfd; stroke:none;" d="M204 60L205 61L204 60z"/>
<path style="fill:#eeadac; stroke:none;" d="M213 60L215 64L216 64L216 60L213 60z"/>
<path style="fill:#d57a79; stroke:none;" d="M214 60L215 61L214 60z"/>
<path style="fill:#b34d4d; stroke:none;" d="M220.667 60.3333L221.333 60.6667L220.667 60.3333z"/>
<path style="fill:#eeadac; stroke:none;" d="M222 60L223 61L222 60z"/>
<path style="fill:#b34d4d; stroke:none;" d="M237 60L237 61L240 61L237 60z"/>
<path style="fill:#d57a79; stroke:none;" d="M247.333 60.6667L247.667 61.3333L247.333 60.6667z"/>
<path style="fill:#b34d4d; stroke:none;" d="M40.3333 61.6667L40.6667 62.3333L40.3333 61.6667z"/>
<path style="fill:#eeadac; stroke:none;" d="M41.3333 61.6667L41.6667 62.3333L41.3333 61.6667z"/>
<path style="fill:#d57a79; stroke:none;" d="M66 61L66 64L67 64L66 61M70 61L70 64L71 64L70 61M86 61L88 64L86 61z"/>
<path style="fill:#eeadac; stroke:none;" d="M94 61L94 62L98 63L98 62L94 61z"/>
<path style="fill:#b34d4d; stroke:none;" d="M95 61L96 62L95 61M98 61L99 62L98 61z"/>
<path style="fill:#eeadac; stroke:none;" d="M102 61L102 64L103 64L102 61z"/>
<path style="fill:#d57a79; stroke:none;" d="M106 61L107 62L106 61z"/>
<path style="fill:#eeadac; stroke:none;" d="M125 61L126 62L125 61M135.667 61.3333L136.333 61.6667L135.667 61.3333M177 61L178 62L177 61M184 61L184 62L188 63L188 62L184 61z"/>
<path style="fill:#b34d4d; stroke:none;" d="M185 61L186 62L185 61M188 61L189 62L188 61z"/>
<path style="fill:#d57a79; stroke:none;" d="M196 61L197 62L196 61M215.333 61.6667L215.667 62.3333L215.333 61.6667z"/>
<path style="fill:#eeadac; stroke:none;" d="M220.333 61.6667L220.667 62.3333L220.333 61.6667z"/>
<path style="fill:#d57a79; stroke:none;" d="M237.333 61.6667L237.667 62.3333L237.333 61.6667z"/>
<path style="fill:#eeadac; stroke:none;" d="M248 61L249 62L248 61z"/>
<path style="fill:#b34d4d; stroke:none;" d="M30.3333 62.6667L30.6667 63.3333L30.3333 62.6667z"/>
<path style="fill:#d57a79; stroke:none;" d="M94.3333 62.6667L94.6667 63.3333L94.3333 62.6667z"/>
<path style="fill:#eeadac; stroke:none;" d="M99 62L100 63L99 62z"/>
<path style="fill:#b34d4d; stroke:none;" d="M107 62L108 63L107 62z"/>
<path style="fill:#eeadac; stroke:none;" d="M120 62L122 64L122 62L120 62M126 62L126 63L129 63L126 62M130 62L129 64L131 64L130 62M153 62L153 64L155 64L153 62M155 62L155 63L158 63L155 62M178 62L179 63L178 62z"/>
<path style="fill:#d57a79; stroke:none;" d="M184.333 62.6667L184.667 63.3333L184.333 62.6667z"/>
<path style="fill:#eeadac; stroke:none;" d="M189 62L190 63L189 62z"/>
<path style="fill:#b34d4d; stroke:none;" d="M197 62L198 63L197 62z"/>
<path style="fill:#eeadac; stroke:none;" d="M203 62L203 63L206 63L203 62M207 62L206 64L208 64L207 62z"/>
<path style="fill:#d57a79; stroke:none;" d="M229 62L229 64L231 62L229 62z"/>
<path style="fill:#b34d4d; stroke:none;" d="M248 62L250 64L250 62L248 62z"/>
<path style="fill:#d57a79; stroke:none;" d="M40 63L40 67L41 67L40 63z"/>
<path style="fill:#b34d4d; stroke:none;" d="M76 63L76 64L79 64L76 63z"/>
<path style="fill:#eeadac; stroke:none;" d="M86 63L87 64L86 63M98 63L99 64L98 63z"/>
<path style="fill:#d57a79; stroke:none;" d="M107 63L108 64L107 63z"/>
<path style="fill:#b34d4d; stroke:none;" d="M118 63L118 64L121 64L118 63z"/>
<path style="fill:#eeadac; stroke:none;" d="M124 63L125 64L124 63M159 63L160 64L159 63z"/>
<path style="fill:#b34d4d; stroke:none;" d="M163 63L163 64L166 64L163 63z"/>
<path style="fill:#eeadac; stroke:none;" d="M176 63L177 64L176 63z"/>
<path style="fill:#b34d4d; stroke:none;" d="M177 63L178 64L177 63z"/>
<path style="fill:#eeadac; stroke:none;" d="M188 63L189 64L188 63z"/>
<path style="fill:#d57a79; stroke:none;" d="M197 63L198 64L197 63z"/>
<path style="fill:#eeadac; stroke:none;" d="M201 63L202 64L201 63z"/>
<path style="fill:#b34d4d; stroke:none;" d="M212 63L212 64L215 64L212 63M220 63L220 64L223 64L220 63z"/>
<path style="fill:#eeadac; stroke:none;" d="M230 63L231 64L230 63z"/>
<path style="fill:#b34d4d; stroke:none;" d="M237 63L237 64L240 64L237 63z"/>
<path style="fill:#d57a79; stroke:none;" d="M240 63L241 64L240 63z"/>
<path style="fill:#eeadac; stroke:none;" d="M248 63L249 64L248 63z"/>
<path style="fill:#d57a79; stroke:none;" d="M30 64L30 67L31 67L30 64z"/>
<path style="fill:#eeadac; stroke:none;" d="M29 67L30 68L29 67z"/>
<path style="fill:#b34d4d; stroke:none;" d="M30 67L31 68L30 67M40 67L43 70L40 67z"/>
<path style="fill:#eeadac; stroke:none;" d="M41 67L42 68L41 67M28 68L29 69L28 68M42 68L43 69L42 68M27 69L26 71L27 69M43 69L44 70L43 69z"/>
<path style="fill:#b34d4d; stroke:none;" d="M27 70L28 71L27 70M32 70L33 71L32 70z"/>
<path style="fill:#d57a79; stroke:none;" d="M33 70L34 71L33 70z"/>
<path style="fill:#eeadac; stroke:none;" d="M34 70L34 71L37 71L34 70z"/>
<path style="fill:#d57a79; stroke:none;" d="M37 70L38 71L37 70z"/>
<path style="fill:#b34d4d; stroke:none;" d="M38 70L39 71L38 70z"/>
<path style="fill:#d57a79; stroke:none;" d="M43 70L44 71L43 70M26 71L27 72L26 71M31 71L29 74L31 71z"/>
<path style="fill:#eeadac; stroke:none;" d="M32 71L33 72L32 71z"/>
<path style="fill:#fffdfd; stroke:none;" d="M33.1474 71.7577C26.9756 74.3376 31.458 84.1127 37.7724 81.392C43.95 78.7302 39.5651 69.075 33.1474 71.7577z"/>
<path style="fill:#eeadac; stroke:none;" d="M38 71L39 72L38 71z"/>
<path style="fill:#d57a79; stroke:none;" d="M39 71L40 72L39 71M44.3333 71.6667L44.6667 72.3333L44.3333 71.6667z"/>
<path style="fill:#eeadac; stroke:none;" d="M25 72L26 73L25 72z"/>
<path style="fill:#b34d4d; stroke:none;" d="M26 72L27 73L26 72z"/>
<path style="fill:#d57a79; stroke:none;" d="M40 72L41 73L40 72z"/>
<path style="fill:#eeadac; stroke:none;" d="M45.3333 72.6667L45.6667 73.3333L45.3333 72.6667z"/>
<path style="fill:#d57a79; stroke:none;" d="M25.3333 73.6667L25.6667 74.3333L25.3333 73.6667z"/>
<path style="fill:#eeadac; stroke:none;" d="M40 73L41 74L40 73z"/>
<path style="fill:#b34d4d; stroke:none;" d="M41 73L42 74L41 73M44 73L45 74L44 73z"/>
<path style="fill:#eeadac; stroke:none;" d="M24 74L24 78L25 78L24 74z"/>
<path style="fill:#b34d4d; stroke:none;" d="M28 74L29 80L30 80L28 74z"/>
<path style="fill:#eeadac; stroke:none;" d="M29 74L29 79L30 79L29 74z"/>
<path style="fill:#d57a79; stroke:none;" d="M41 74L42 75L41 74M45.3333 74.6667L45.6667 75.3333L45.3333 74.6667z"/>
<path style="fill:#b34d4d; stroke:none;" d="M25 75L26 76L25 75z"/>
<path style="fill:#eeadac; stroke:none;" d="M41 75L41 78L42 78L41 75z"/>
<path style="fill:#b34d4d; stroke:none;" d="M45 76L46 77L45 76z"/>
<path style="fill:#d57a79; stroke:none;" d="M25.3333 77.6667L25.6667 78.3333L25.3333 77.6667M45.3333 77.6667L45.6667 78.3333L45.3333 77.6667M41 78L42 79L41 78z"/>
<path style="fill:#eeadac; stroke:none;" d="M25.3333 79.6667L25.6667 80.3333L25.3333 79.6667M30 79L31 80L30 79M40 79L41 80L40 79z"/>
<path style="fill:#b34d4d; stroke:none;" d="M41 79L42 80L41 79M44 79L41 85L44 79z"/>
<path style="fill:#eeadac; stroke:none;" d="M45.3333 79.6667L45.6667 80.3333L45.3333 79.6667z"/>
<path style="fill:#b34d4d; stroke:none;" d="M26 80L27 81L26 80z"/>
<path style="fill:#d57a79; stroke:none;" d="M30 80L31 81L30 80M40 80L41 81L40 80M26 81L27 82L26 81M31 81L32 82L31 81M39 81L40 82L39 81M44 81L45 82L44 81z"/>
<path style="fill:#eeadac; stroke:none;" d="M26 82L28 84L26 82z"/>
<path style="fill:#b34d4d; stroke:none;" d="M27 82L28 83L27 82M32 82L33 83L32 82z"/>
<path style="fill:#d57a79; stroke:none;" d="M33 82L34 83L33 82z"/>
<path style="fill:#eeadac; stroke:none;" d="M34 82L34 83L37 83L34 82z"/>
<path style="fill:#d57a79; stroke:none;" d="M37 82L38 83L37 82z"/>
<path style="fill:#b34d4d; stroke:none;" d="M38 82L39 83L38 82z"/>
<path style="fill:#eeadac; stroke:none;" d="M43 83L44 84L43 83M28 84L29 85L28 84z"/>
<path style="fill:#b34d4d; stroke:none;" d="M29 84L30 85L29 84z"/>
<path style="fill:#eeadac; stroke:none;" d="M42 84L43 85L42 84z"/>
<path style="fill:#d57a79; stroke:none;" d="M30 85L31 86L30 85z"/>
<path style="fill:#b34d4d; stroke:none;" d="M31.6667 85.3333L32.3333 85.6667L31.6667 85.3333M39 85L40 86L39 85z"/>
<path style="fill:#eeadac; stroke:none;" d="M40 85L41 86L40 85z"/>
</svg>
